<svg width="281" height="350" viewBox="0 0 281 350" fill="none" xmlns="http://www.w3.org/2000/svg">
<mask id="mask0" mask-type="alpha" maskUnits="userSpaceOnUse" x="0" y="0" width="281" height="350">
<rect x="0.312012" width="280.532" height="349.911" rx="37.706" fill="#161615"/>
</mask>
<g mask="url(#mask0)">
<path d="M232.227 188.366C226.999 181.103 225.224 173.772 227.064 166.905C228.688 161 232.588 155.98 237.908 152.946C243.227 149.912 249.533 149.111 255.443 150.719C262.013 152.48 267.121 155.784 270.109 161.956C272.644 161.627 275.218 161.768 277.702 162.372C282.543 163.68 286.667 166.855 289.17 171.2C291.672 175.545 292.349 180.705 291.051 185.549C288.704 194.309 279.627 200.324 270.231 199.557C269.957 201.792 268.983 203.885 267.449 205.534C269.063 206.766 270.367 208.356 271.26 210.178C272.152 212.001 272.608 214.006 272.592 216.036L276.415 217.06C277.049 216.381 277.856 215.887 278.749 215.631C279.642 215.375 280.588 215.367 281.485 215.608L287.115 217.116C288.253 217.424 289.25 218.115 289.938 219.072C290.626 220.029 290.963 221.195 290.892 222.371L296.756 223.943C298.069 224.295 299.188 225.153 299.867 226.33C300.547 227.507 300.731 228.905 300.379 230.218L298.881 235.81C298.529 237.123 297.67 238.242 296.494 238.921C295.317 239.601 293.918 239.785 292.606 239.433L286.778 237.872C286.272 238.968 285.395 239.85 284.302 240.363C283.208 240.875 281.969 240.985 280.803 240.673L275.21 239.175C274.045 238.859 273.03 238.141 272.342 237.149C271.654 236.157 271.339 234.954 271.452 233.752L230.4 222.752C226.482 221.742 223.034 219.407 220.641 216.144C218.249 212.881 217.06 208.89 217.276 204.849C217.492 200.809 219.099 196.968 221.825 193.978C224.552 190.988 228.229 189.033 232.232 188.446L232.227 188.366ZM293.909 234.571L295.44 228.855L289.687 227.313L288.189 232.906L293.909 234.571ZM276.517 234.3L282.109 235.799C282.931 232.73 285.026 224.911 285.756 222.189L280.163 220.69L276.517 234.3ZM231.735 217.819L272.713 228.799L274.553 221.932L269.121 220.477C268.465 220.301 267.905 219.871 267.566 219.283C267.226 218.695 267.134 217.995 267.31 217.339C267.672 215.552 267.387 213.693 266.506 212.097C265.624 210.5 264.203 209.269 262.497 208.623C260.629 209.166 258.647 209.181 256.77 208.667C256.114 208.491 255.555 208.062 255.215 207.473C254.875 206.885 254.783 206.186 254.959 205.529C255.135 204.873 255.564 204.314 256.153 203.974C256.741 203.634 257.44 203.542 258.096 203.718C259.537 204.104 261.072 203.902 262.363 203.156C263.655 202.41 264.597 201.182 264.983 199.742C265.369 198.301 265.167 196.766 264.422 195.475C263.676 194.183 262.448 193.241 261.007 192.855C260.351 192.679 259.791 192.25 259.452 191.661C259.112 191.073 259.02 190.374 259.196 189.717C259.372 189.061 259.801 188.501 260.389 188.162C260.978 187.822 261.677 187.73 262.333 187.906C263.953 188.345 265.447 189.158 266.696 190.277C267.946 191.397 268.916 192.794 269.53 194.356C276.724 195.568 284.234 191.095 286.093 184.207C287.04 180.674 286.546 176.91 284.72 173.74C282.894 170.571 279.886 168.256 276.354 167.302C274.89 166.955 273.382 166.828 271.88 166.926C272.398 168.927 272.779 170.96 273.021 173.013C273.06 173.661 272.852 174.3 272.439 174.801C272.025 175.302 271.437 175.627 270.793 175.71C270.149 175.794 269.497 175.629 268.97 175.251C268.442 174.872 268.078 174.307 267.951 173.67C266.553 162.753 262.864 158.012 254.08 155.658C251.804 155.028 249.426 154.852 247.083 155.143C244.739 155.434 242.476 156.184 240.423 157.352C238.371 158.52 236.569 160.081 235.121 161.947C233.674 163.813 232.609 165.946 231.988 168.225C229.883 176.081 234.508 183.566 238.977 188.662C241.616 189.282 244.075 190.504 246.163 192.232C246.65 192.676 246.947 193.291 246.992 193.948C247.038 194.605 246.829 195.255 246.408 195.762C245.987 196.269 245.387 196.594 244.732 196.67C244.078 196.746 243.419 196.567 242.893 196.17C241.464 194.96 239.781 194.088 237.968 193.618C236.156 193.148 234.26 193.092 232.424 193.455C230.587 193.819 228.855 194.591 227.358 195.715C225.86 196.839 224.635 198.286 223.774 199.949C222.913 201.611 222.437 203.447 222.382 205.318C222.328 207.19 222.696 209.05 223.458 210.76C224.221 212.47 225.36 213.986 226.789 215.196C228.218 216.405 229.902 217.277 231.714 217.747" fill="#303030"/>
<path d="M280.628 241.276C281.848 241.606 283.144 241.523 284.312 241.04C285.48 240.556 286.456 239.7 287.086 238.604L292.419 240.033C293.893 240.428 295.464 240.222 296.787 239.46C298.11 238.698 299.076 237.443 299.475 235.969L300.983 230.34C301.377 228.869 301.172 227.301 300.412 225.981C299.652 224.661 298.399 223.697 296.929 223.299L291.547 221.857C291.506 220.624 291.072 219.437 290.308 218.469C289.544 217.5 288.489 216.802 287.3 216.476L281.695 214.974C280.749 214.719 279.754 214.71 278.804 214.947C277.854 215.185 276.98 215.661 276.266 216.331L273.272 215.528C273.217 213.591 272.753 211.687 271.908 209.943C271.063 208.199 269.858 206.654 268.371 205.41C269.61 203.908 270.435 202.109 270.764 200.19C280.36 200.706 289.278 194.542 291.668 185.674C292.978 180.679 292.261 175.368 289.673 170.899C287.085 166.43 282.836 163.165 277.851 161.815C275.442 161.231 272.95 161.07 270.486 161.341C267.614 155.678 262.864 152.124 255.601 150.178C249.535 148.538 243.066 149.369 237.61 152.487C232.154 155.606 228.156 160.758 226.491 166.818C224.687 173.548 226.298 180.849 231.181 187.966C227.886 188.642 224.844 190.219 222.392 192.521C219.939 194.823 218.173 197.76 217.29 201.006C216.66 203.317 216.499 205.731 216.817 208.105C217.135 210.479 217.926 212.765 219.142 214.829C221.57 219.01 225.553 222.06 230.222 223.314L270.767 234.178C270.767 235.446 271.185 236.677 271.956 237.682C272.727 238.688 273.809 239.41 275.033 239.737L280.638 241.239L280.628 241.276ZM286.416 237.045L286.175 237.551C285.738 238.51 284.976 239.283 284.022 239.732C283.069 240.181 281.987 240.277 280.969 240.002L275.365 238.5C274.343 238.225 273.451 237.597 272.849 236.726C272.247 235.856 271.973 234.8 272.077 233.747L272.126 233.216L230.554 222.077C228.39 221.503 226.36 220.507 224.581 219.148C222.802 217.788 221.308 216.091 220.185 214.154C219.059 212.234 218.327 210.11 218.033 207.904C217.738 205.698 217.886 203.456 218.469 201.308C219.339 198.132 221.117 195.279 223.586 193.099C226.054 190.92 229.106 189.509 232.365 189.039L233.402 188.879L232.792 188.039C227.701 180.96 226.017 173.732 227.787 167.125C229.354 161.397 233.124 156.522 238.275 153.566C243.426 150.61 249.537 149.813 255.274 151.35C262.326 153.24 266.86 156.709 269.533 162.226L269.728 162.636L270.179 162.584C272.632 162.282 275.119 162.419 277.524 162.988C282.202 164.248 286.189 167.315 288.607 171.514C291.026 175.713 291.678 180.7 290.42 185.38C288.149 193.855 279.467 199.684 270.273 198.905L269.65 198.857L269.58 199.462C269.332 201.567 268.418 203.538 266.972 205.088L266.488 205.608L267.049 206.037C268.595 207.202 269.846 208.713 270.703 210.449C271.559 212.184 271.998 214.096 271.983 216.032L271.968 216.532L276.658 217.788L276.92 217.501C277.475 216.906 278.181 216.475 278.963 216.252C279.745 216.029 280.572 216.024 281.357 216.236L286.949 217.735C287.945 218.004 288.817 218.609 289.418 219.446C290.02 220.284 290.315 221.303 290.252 222.333L290.215 222.866L296.587 224.574C297.73 224.883 298.702 225.633 299.293 226.659C299.883 227.685 300.042 228.902 299.736 230.046L298.237 235.638C297.927 236.783 297.175 237.759 296.146 238.351C295.118 238.943 293.896 239.103 292.75 238.796L286.403 237.095L286.416 237.045ZM282.592 236.472L286.57 221.624L279.74 219.794L275.762 234.642L282.592 236.472ZM285.001 222.53L281.686 234.903L277.318 233.732L280.634 221.36L285.001 222.53ZM294.353 235.287L296.183 228.457L289.193 226.584L287.363 233.414L294.353 235.287ZM294.618 229.35L293.448 233.718L288.919 232.505L290.086 228.149L294.618 229.35ZM273.158 229.515L275.342 221.361L269.292 219.74C269.047 219.677 268.818 219.565 268.618 219.411C268.417 219.257 268.25 219.064 268.126 218.844C268 218.628 267.918 218.389 267.884 218.141C267.85 217.893 267.866 217.641 267.93 217.399C268.328 215.459 268.023 213.441 267.069 211.706C266.115 209.971 264.575 208.631 262.724 207.928L262.513 207.872L262.31 207.937C260.574 208.428 258.738 208.444 256.993 207.984C256.75 207.921 256.522 207.81 256.322 207.657C256.123 207.505 255.955 207.315 255.83 207.097C255.704 206.88 255.623 206.64 255.591 206.391C255.559 206.141 255.577 205.889 255.644 205.646C255.775 205.156 256.095 204.738 256.533 204.483C256.972 204.228 257.493 204.156 257.984 204.285C259.587 204.71 261.293 204.485 262.729 203.657C264.166 202.83 265.217 201.468 265.652 199.868C266.082 198.264 265.859 196.556 265.032 195.116C264.205 193.677 262.841 192.624 261.239 192.187C260.994 192.125 260.765 192.013 260.565 191.859C260.364 191.705 260.197 191.512 260.073 191.292C259.947 191.076 259.865 190.837 259.831 190.589C259.797 190.341 259.813 190.089 259.877 189.847C260.009 189.354 260.331 188.935 260.772 188.68C261.214 188.425 261.738 188.356 262.23 188.488C263.749 188.911 265.15 189.679 266.324 190.732C267.498 191.784 268.413 193.094 268.998 194.558L269.132 194.899L269.479 194.992C277.094 196.263 284.836 191.522 286.751 184.423C287.746 180.725 287.231 176.783 285.321 173.464C283.411 170.144 280.26 167.719 276.563 166.722C275.04 166.36 273.471 166.226 271.909 166.323L271.116 166.363L271.32 167.134C271.826 169.108 272.201 171.113 272.444 173.137C272.477 173.386 272.46 173.639 272.395 173.882C272.33 174.125 272.218 174.352 272.065 174.551C271.912 174.751 271.721 174.918 271.503 175.043C271.285 175.168 271.044 175.249 270.795 175.281C270.289 175.344 269.779 175.207 269.372 174.9C269.174 174.747 269.009 174.556 268.885 174.338C268.761 174.121 268.682 173.881 268.651 173.632C267.193 162.394 263.441 157.543 254.301 155.081C249.543 153.788 244.468 154.434 240.185 156.875C235.902 159.316 232.761 163.355 231.45 168.107C229.252 176.31 234.111 184.057 238.575 189.125L238.709 189.267L238.907 189.32C241.453 189.914 243.825 191.094 245.834 192.767C246.222 193.095 246.468 193.56 246.52 194.065C246.544 194.315 246.518 194.567 246.442 194.807C246.367 195.046 246.244 195.268 246.08 195.459C245.923 195.656 245.726 195.819 245.503 195.937C245.28 196.055 245.034 196.126 244.783 196.146C244.533 196.17 244.28 196.143 244.041 196.067C243.801 195.992 243.58 195.869 243.389 195.706C241.679 194.289 239.639 193.327 237.458 192.91C235.277 192.493 233.026 192.633 230.914 193.318C228.825 193.967 226.935 195.134 225.418 196.71C223.902 198.286 222.808 200.22 222.239 202.332C221.363 205.694 221.851 209.266 223.597 212.27C225.343 215.274 228.206 217.466 231.561 218.369L273.158 229.515ZM273.774 222.267L272.252 227.946L231.892 217.131C228.847 216.33 226.243 214.353 224.653 211.635C223.062 208.917 222.613 205.679 223.406 202.631C223.92 200.729 224.907 198.987 226.275 197.569C227.643 196.15 229.347 195.1 231.229 194.516C233.136 193.897 235.168 193.768 237.138 194.143C239.107 194.518 240.951 195.384 242.496 196.66C243.148 197.202 243.988 197.463 244.832 197.386C245.676 197.309 246.454 196.899 246.996 196.248C247.538 195.597 247.799 194.757 247.722 193.913C247.645 193.069 247.235 192.29 246.584 191.748C244.477 189.991 241.995 188.741 239.328 188.093C235.106 183.262 230.636 175.991 232.665 168.419C233.884 163.99 236.809 160.226 240.799 157.951C244.79 155.677 249.52 155.078 253.951 156.287C262.488 158.574 265.997 163.148 267.356 173.763C267.393 174.193 267.517 174.612 267.72 174.993C267.923 175.375 268.201 175.711 268.537 175.982C268.874 176.253 269.261 176.453 269.677 176.571C270.093 176.688 270.528 176.72 270.957 176.665C271.385 176.609 271.798 176.468 272.17 176.249C272.543 176.03 272.867 175.738 273.123 175.39C273.38 175.042 273.563 174.646 273.663 174.226C273.762 173.806 273.776 173.369 273.702 172.944C273.477 171.13 273.154 169.33 272.733 167.552C273.905 167.526 275.074 167.652 276.213 167.928C279.58 168.837 282.449 171.045 284.19 174.067C285.931 177.089 286.402 180.679 285.499 184.048C283.789 190.432 276.884 194.722 270.025 193.746C269.334 192.167 268.298 190.764 266.993 189.639C265.688 188.513 264.147 187.695 262.484 187.243C261.664 187.023 260.79 187.139 260.054 187.563C259.319 187.988 258.782 188.687 258.562 189.508C258.343 190.328 258.458 191.202 258.882 191.938C259.307 192.673 260.006 193.21 260.827 193.43C262.103 193.775 263.191 194.613 263.851 195.759C264.511 196.906 264.689 198.267 264.347 199.544C264.002 200.818 263.166 201.903 262.023 202.561C260.88 203.219 259.522 203.397 258.247 203.055C257.427 202.836 256.553 202.951 255.818 203.375C255.082 203.8 254.545 204.499 254.326 205.32C254.106 206.14 254.221 207.014 254.645 207.75C255.07 208.485 255.769 209.022 256.59 209.242C258.503 209.758 260.518 209.763 262.434 209.256C263.941 209.872 265.188 210.992 265.96 212.425C266.733 213.859 266.983 215.516 266.667 217.114C266.557 217.519 266.528 217.942 266.581 218.358C266.635 218.775 266.77 219.177 266.979 219.541C267.189 219.905 267.468 220.224 267.801 220.48C268.133 220.736 268.514 220.924 268.919 221.032L273.774 222.267Z" fill="#161615"/>
<path d="M-7.04615 178.628C-8.68079 175.101 -8.99673 171.104 -7.93661 167.363C-7.57423 166.011 -7.02366 163.227 -5.3568 162.932C-4.49256 162.867 -3.62416 162.882 -2.76261 162.976C-1.22535 163.013 0.302288 163.056 1.82584 163.114C12.2072 163.475 22.5841 163.983 32.9566 164.64C38.1295 164.967 43.3095 165.329 48.4777 165.826C51.7609 166.03 55.0245 166.477 58.2415 167.164C58.8894 167.329 59.8285 167.532 60.2215 168.102C61.4076 169.844 58.5334 172.609 57.4297 173.567C54.6218 176.184 51.0757 177.873 47.2739 178.403C43.538 178.851 39.4155 177.673 35.7922 178.918C31.6275 180.359 30.3028 185.606 25.9739 187.052C25.2636 187.305 24.5051 187.393 23.7558 187.309C23.0065 187.225 22.286 186.972 21.6489 186.569C19.7366 185.348 18.8987 183.096 17.1868 181.644C13.5554 178.603 8.55991 179.072 4.1462 179.436C1.70217 179.653 -0.719614 179.908 -3.16186 179.905C-4.38298 179.904 -6.20258 179.978 -7.00788 178.85C-7.69787 177.9 -6.26105 176.762 -5.5807 177.718C-5.01566 178.496 -2.07584 178.071 -1.35022 178.037C0.954861 177.914 3.24284 177.672 5.54495 177.499C8.81391 177.243 12.2519 177.146 15.3387 178.421C16.7022 178.986 17.9443 179.808 18.9976 180.843C20.353 182.167 21.1753 184.325 22.9218 185.192C26.5561 187.037 29.69 181.541 31.6939 179.473C36.692 174.313 44.6314 178.053 50.7055 175.625C52.4839 174.939 54.1448 173.98 55.6284 172.783C56.7218 171.757 57.6915 170.606 58.5176 169.355C59.124 168.581 58.1988 169.359 58.8844 169.323C58.701 169.339 58.9048 169.247 58.7862 169.264C58.6676 169.281 58.109 169.026 57.8963 168.969C55.082 168.35 52.2237 167.951 49.3473 167.777C44.7644 167.315 40.164 166.978 35.5707 166.676C25.8127 166.015 16.025 165.526 6.25292 165.131C2.83596 164.997 -0.576958 164.848 -3.99352 164.804C-4.29297 164.797 -4.99116 164.789 -4.9856 164.799C-4.98003 164.809 -5.19686 164.767 -5.27949 164.802C-5.36213 164.836 -5.27949 164.802 -5.27949 164.802C-4.62439 164.423 -5.20936 165.057 -5.28821 165.32C-6.02937 167.752 -6.88216 169.902 -6.74494 172.52C-6.65206 174.406 -6.1871 176.254 -5.3768 177.96C-4.85466 179.02 -6.54027 179.749 -7.06241 178.689" fill="#303030"/>
<path d="M-25.1674 194.652C-24.2694 191.14 -22.209 188.035 -19.3218 185.844C-18.0884 184.887 -15.419 182.614 -13.7425 183.56C-11.8168 184.67 -10.0621 186.753 -8.47846 188.228C-0.670666 195.255 7.03599 202.396 14.6415 209.651C18.4272 213.271 22.1993 216.912 25.8779 220.659C28.2418 222.874 30.4153 225.284 32.3757 227.864C32.8061 228.476 33.3864 229.259 33.0835 230.024C32.4103 231.929 28.6221 232.086 27.0686 232.11C23.4893 232.191 19.9591 231.265 16.8807 229.437C13.5573 227.374 11.0912 223.57 7.34737 222.224C5.13205 221.435 3.03653 222.144 0.830477 222.506C-0.917368 222.844 -2.71554 222.825 -4.45576 222.449C-8.18133 221.492 -8.59515 218.417 -8.39759 215.066C-8.03183 209.203 -12.2763 205.745 -16.6489 202.643C-18.8136 201.118 -21.0499 199.648 -23.0625 197.92C-24.0445 197.086 -25.3434 196.038 -25.2393 194.616C-25.1604 193.44 -23.3518 193.681 -23.4307 194.857C-23.5097 196.033 -20.435 197.687 -19.8148 198.138C-17.8739 199.587 -15.8868 200.893 -13.9625 202.312C-11.2146 204.335 -8.48697 206.768 -7.29001 210.02C-6.68847 211.704 -6.45511 213.496 -6.60568 215.277C-6.71301 216.893 -6.99593 218.739 -5.59432 219.921C-3.12918 221.966 0.866871 220.455 3.60547 220.082C10.9319 219.089 14.5882 227.113 20.8731 229.277C23.6811 230.225 27.5722 230.868 30.4647 229.738C30.5996 229.66 31.4281 229.182 31.4281 229.182C31.4281 229.182 31.1878 229.744 31.3023 229.742C31.4168 229.741 30.9574 229.145 30.9185 229.078C29.24 226.814 27.3638 224.703 25.3119 222.771C22.1237 219.474 18.8103 216.249 15.5054 213.083C8.33838 206.187 1.03395 199.409 -6.32532 192.714C-8.84538 190.418 -11.3614 188.107 -13.9418 185.884C-14.2202 185.647 -14.5275 185.426 -14.7922 185.168C-14.856 185.094 -14.9342 185.035 -15.022 184.992C-14.5687 185.155 -15.0168 185.246 -15.4726 185.458C-17.4146 186.352 -19.1392 187.657 -20.5269 189.283C-21.9146 190.909 -22.9322 192.818 -23.5093 194.876C-23.7858 195.999 -25.564 195.767 -25.3179 194.636" fill="#303030"/>
<path d="M18.2102 174.695L18.1235 174.745C18.2198 174.69 18.3161 174.634 18.4221 174.573C18.5526 174.485 18.6767 174.387 18.7934 174.281C18.8762 174.24 18.9566 174.193 19.0342 174.142L19.1595 174.07C19.3232 173.975 19.0194 174.228 19.1595 174.07C19.2995 173.912 19.4669 173.713 19.6055 173.53C19.6742 173.434 19.7365 173.334 19.7918 173.23C19.7918 173.23 19.6796 173.436 19.7918 173.23L19.8847 173.035L20.0225 172.673L20.081 172.485C20.0129 172.678 20.081 172.485 20.081 172.485L20.1357 172.068L20.1445 171.883C20.1549 171.723 20.1445 171.883 20.1445 171.883L20.1371 171.759C20.1276 171.566 20.1028 171.374 20.0628 171.185L20.0205 170.978C20.0705 171.065 19.9315 170.824 19.9148 170.795C19.8426 170.587 19.7555 170.384 19.6541 170.188L19.4705 169.87L19.3259 169.619C19.1837 169.425 19.1208 169.184 19.1499 168.946C19.1791 168.707 19.2982 168.488 19.483 168.334C19.675 168.186 19.9173 168.12 20.1578 168.15C20.3982 168.179 20.6175 168.302 20.7683 168.491C21.2191 169.046 21.5494 169.689 21.7382 170.378C21.927 171.068 21.9701 171.789 21.8649 172.497C21.7597 173.204 21.5084 173.881 21.127 174.486C20.7456 175.091 20.2425 175.609 19.6496 176.009C19.4106 176.173 19.1594 176.318 18.8982 176.443C18.676 176.539 18.4247 176.543 18.1997 176.453C17.9747 176.364 17.7944 176.189 17.6984 175.967C17.6025 175.745 17.5987 175.493 17.688 175.268C17.7773 175.043 17.9523 174.863 18.1746 174.767" fill="#303030"/>
<path d="M-1.21693 209.482C-1.74541 209.478 -1.21695 209.482 -1.11097 209.42C-0.972927 209.408 -0.836035 209.384 -0.701477 209.351L-0.485062 209.303C-0.37909 209.242 -0.759283 209.384 -0.610305 209.375C-0.597198 209.362 -0.58048 209.352 -0.562119 209.348L-0.436905 209.275C-0.260761 209.213 -0.0887343 209.139 0.0781555 209.055L0.203399 208.983C0.376807 208.883 0.00109223 209.099 0.145599 209.016L0.424987 208.855C0.511691 208.805 0.5984 208.755 0.666928 208.651C0.735455 208.547 0.503553 208.835 0.666928 208.651L0.783625 208.519C0.870329 208.469 0.922167 208.337 0.98106 208.238C1.03995 208.14 0.909952 208.382 0.98106 208.238L1.08772 208.023C1.14818 207.888 1.20148 207.75 1.24734 207.609C1.24734 207.609 1.27285 207.453 1.21327 207.706C1.22793 207.667 1.23882 207.626 1.24582 207.584L1.29578 207.337C1.32196 207.155 1.33589 206.971 1.33747 206.787L1.34929 206.651C1.31454 206.903 1.39935 206.738 1.34929 206.651C1.34979 206.535 1.34283 206.419 1.32844 206.304C1.30116 206.065 1.36706 205.824 1.51244 205.633C1.65782 205.441 1.87145 205.313 2.10894 205.275C2.22774 205.259 2.34864 205.266 2.46467 205.296C2.5807 205.326 2.68962 205.379 2.78516 205.452C2.88071 205.524 2.96103 205.615 3.02151 205.719C3.08199 205.822 3.12143 205.937 3.13761 206.055C3.2284 206.869 3.13831 207.693 2.87378 208.469C2.6522 209.077 2.28006 209.618 1.79214 210.044C1.08787 210.637 0.228893 211.017 -0.683868 211.139C-0.927493 211.172 -1.17337 211.185 -1.41911 211.178C-1.53559 211.164 -1.64809 211.127 -1.75002 211.069C-1.85194 211.011 -1.94121 210.933 -2.01255 210.84C-2.16236 210.651 -2.23097 210.41 -2.20332 210.17C-2.17568 209.93 -2.05404 209.711 -1.86508 209.56C-1.66698 209.416 -1.42311 209.348 -1.1788 209.37" fill="#303030"/>
<path d="M52.6002 165.668C52.6662 165.673 52.7301 165.693 52.7863 165.728C52.8424 165.762 52.8891 165.811 52.9222 165.868C52.9552 165.925 52.9736 165.99 52.9756 166.056C52.9777 166.122 52.9634 166.187 52.9339 166.246C50.8639 170.203 37.8183 195.063 33.3934 202.216C28.5781 210.006 19.9796 223.101 17.984 225.474C17.067 226.579 15.8358 227.379 14.4536 227.769C13.9189 227.911 12.4918 226.885 12.595 226.196C12.6981 225.507 14.4617 224.001 16.1947 220.572C17.9276 217.144 22.718 209.356 22.718 209.356L22.0795 204.779L17.7517 214.214L14.1396 211.162C17.654 204.217 21.559 197.476 25.8359 190.973C31.2571 183.232 36.416 180.086 36.416 180.086L48.8813 165.902C49.0205 165.747 49.1932 165.625 49.3863 165.547C49.5794 165.469 49.7878 165.436 49.9956 165.451L52.6002 165.668Z" fill="#303030"/>
<path d="M262.721 277.548L261.004 279.549L259.003 277.832C258.473 277.379 257.783 277.154 257.087 277.209C256.391 277.263 255.746 277.592 255.292 278.123C254.838 278.653 254.614 279.342 254.668 280.038C254.723 280.734 255.052 281.38 255.582 281.834L257.583 283.551L224.867 321.836L218.025 329.852L211.183 337.855C210.735 338.387 210.514 339.075 210.57 339.768C210.625 340.462 210.952 341.106 211.479 341.56C211.742 341.784 211.958 342.058 212.115 342.365C212.272 342.673 212.366 343.009 212.393 343.353C212.419 343.698 212.377 344.044 212.269 344.372C212.161 344.7 211.989 345.004 211.763 345.265C211.315 345.797 211.095 346.485 211.15 347.178C211.206 347.872 211.532 348.516 212.06 348.97L220.063 355.812L224.064 359.221C224.595 359.671 225.281 359.893 225.975 359.84C226.669 359.787 227.313 359.462 227.769 358.937C228.204 358.428 228.816 358.103 229.482 358.03C230.147 357.956 230.816 358.139 231.351 358.542L251.803 381.773C252.551 382.621 253.473 383.298 254.505 383.76C255.538 384.221 256.657 384.456 257.788 384.448C258.919 384.44 260.035 384.189 261.06 383.712C262.086 383.236 262.998 382.545 263.733 381.686L270.464 373.807C271.708 372.343 272.377 370.478 272.347 368.558C272.318 366.638 271.592 364.795 270.304 363.371L260.72 352.786L267.71 344.61C269.058 343.013 269.719 340.947 269.548 338.864C269.377 336.781 268.387 334.851 266.796 333.495L260.794 328.37L279.838 306.139C280.153 305.767 280.359 305.315 280.433 304.834C280.507 304.352 280.447 303.859 280.258 303.41L276.306 294.061L278.665 291.294C278.891 291.033 279.063 290.729 279.171 290.401C279.279 290.073 279.321 289.727 279.294 289.383C279.268 289.038 279.173 288.702 279.017 288.395C278.86 288.087 278.644 287.813 278.381 287.589L266.364 277.326C266.102 277.101 265.798 276.93 265.469 276.823C265.141 276.716 264.794 276.675 264.45 276.703C264.105 276.73 263.77 276.826 263.462 276.984C263.155 277.141 262.882 277.359 262.659 277.622L262.721 277.548ZM226.435 328.11L232.154 337.62L228.93 341.412L223.2 331.902L226.435 328.11ZM217.074 346.475C217.494 345.377 217.664 344.198 217.572 343.025C217.48 341.853 217.129 340.715 216.543 339.695L219.593 336.126L225.324 345.636L221.421 350.193L217.074 346.475ZM250.531 340.436L250.605 340.35C251.577 341.899 252.864 343.225 254.384 344.243C255.903 345.26 257.621 345.945 259.423 346.253L258.534 347.278C257.627 348.339 256.335 348.997 254.943 349.106C253.551 349.214 252.173 348.766 251.111 347.859C250.05 346.951 249.393 345.66 249.284 344.268C249.175 342.876 249.624 341.497 250.531 340.436ZM263.993 340.794C262.074 341.412 259.99 341.258 258.183 340.366C256.376 339.474 254.987 337.913 254.31 336.015L257.373 332.433L263.375 337.558C263.833 337.946 264.144 338.478 264.257 339.067C264.369 339.656 264.276 340.266 263.993 340.794ZM274.775 303.966L246.529 337.015C245.203 338.57 244.358 340.478 244.096 342.505C243.835 344.532 244.17 346.592 245.058 348.433C245.947 350.273 247.353 351.816 249.103 352.871C250.853 353.927 252.872 354.451 254.915 354.38L266.364 367.014C266.783 367.495 267.013 368.111 267.013 368.749C267.013 369.387 266.783 370.003 266.364 370.484L259.744 378.253C259.498 378.54 259.193 378.77 258.85 378.928C258.507 379.086 258.134 379.168 257.756 379.168C257.378 379.168 257.005 379.086 256.661 378.928C256.318 378.77 256.013 378.54 255.767 378.253C233.747 353.243 235.118 354.787 234.908 354.602C233.665 353.544 232.126 352.896 230.5 352.748C228.875 352.6 227.244 352.958 225.83 353.774L225.534 353.552L272.589 298.482L274.775 303.966ZM272.959 289.874L235.76 333.409L230.042 323.899L265.055 282.97L272.959 289.874Z" fill="#303030"/>
<path d="M257.744 385.095C256.534 385.095 255.337 384.838 254.234 384.34C253.131 383.841 252.147 383.114 251.347 382.205L230.944 359.036C230.536 358.745 230.034 358.616 229.536 358.675C229.038 358.735 228.58 358.978 228.252 359.357C227.976 359.683 227.638 359.95 227.258 360.145C226.878 360.34 226.463 360.458 226.038 360.492C225.612 360.527 225.184 360.477 224.778 360.346C224.371 360.215 223.995 360.004 223.67 359.728L211.653 349.465C211 348.903 210.597 348.106 210.529 347.247C210.462 346.389 210.737 345.539 211.295 344.883C211.64 344.474 211.813 343.947 211.777 343.413C211.755 343.149 211.682 342.893 211.561 342.657C211.44 342.422 211.274 342.213 211.073 342.042C210.431 341.481 210.034 340.692 209.967 339.843C209.9 338.993 210.168 338.151 210.714 337.497L256.719 283.65L255.176 282.304C254.849 282.029 254.58 281.692 254.385 281.313C254.19 280.933 254.072 280.518 254.039 280.093C253.975 279.231 254.255 278.378 254.817 277.722C255.379 277.069 256.176 276.665 257.035 276.598C257.893 276.531 258.743 276.806 259.399 277.363L260.931 278.673L262.24 277.141C262.802 276.489 263.599 276.085 264.457 276.017C265.316 275.95 266.166 276.226 266.822 276.783L278.826 287.046C279.153 287.321 279.422 287.657 279.617 288.037C279.812 288.417 279.93 288.831 279.963 289.257C280.027 290.119 279.747 290.971 279.185 291.628L277.073 294.098L280.877 303.101C281.114 303.656 281.191 304.266 281.1 304.862C281.008 305.458 280.751 306.016 280.358 306.473L261.709 328.284L267.254 333.014C268.954 334.479 270.009 336.555 270.192 338.792C270.374 341.028 269.669 343.247 268.23 344.969L261.548 352.799L270.762 362.988C272.15 364.524 272.933 366.511 272.965 368.581C272.997 370.651 272.275 372.662 270.935 374.239L264.204 382.106C263.411 383.034 262.429 383.78 261.323 384.296C260.217 384.812 259.014 385.084 257.794 385.095H257.732H257.744ZM229.771 357.418C230.481 357.422 231.17 357.656 231.735 358.085L231.821 358.159L252.261 381.39C252.95 382.174 253.8 382.801 254.753 383.228C255.705 383.654 256.739 383.871 257.783 383.863C258.827 383.855 259.857 383.622 260.803 383.18C261.749 382.739 262.588 382.099 263.265 381.304L269.996 373.437C271.142 372.088 271.759 370.368 271.732 368.598C271.704 366.828 271.035 365.129 269.848 363.816L259.893 352.824L267.242 344.179C268.49 342.707 269.108 340.802 268.96 338.878C268.812 336.954 267.91 335.166 266.451 333.903L259.967 328.37L279.419 305.621C279.661 305.337 279.819 304.991 279.875 304.623C279.932 304.254 279.885 303.877 279.74 303.534L275.64 293.826L278.246 290.776C278.42 290.576 278.553 290.342 278.636 290.09C278.718 289.837 278.75 289.571 278.728 289.306C278.681 288.775 278.429 288.283 278.024 287.935L266.019 277.672C265.819 277.499 265.586 277.366 265.334 277.283C265.082 277.201 264.817 277.169 264.552 277.189C264.288 277.21 264.03 277.283 263.795 277.404C263.559 277.525 263.349 277.692 263.179 277.895L261.067 280.365L258.597 278.253C258.395 278.081 258.162 277.95 257.911 277.868C257.659 277.786 257.394 277.755 257.13 277.776C256.866 277.796 256.609 277.869 256.374 277.989C256.138 278.109 255.928 278.274 255.756 278.475C255.584 278.676 255.453 278.909 255.372 279.161C255.29 279.412 255.258 279.678 255.279 279.941C255.299 280.205 255.372 280.462 255.492 280.698C255.612 280.934 255.777 281.144 255.978 281.316L258.448 283.427L211.641 338.213C211.296 338.621 211.126 339.148 211.168 339.679C211.21 340.211 211.459 340.705 211.863 341.054C212.516 341.616 212.92 342.413 212.987 343.271C213.054 344.13 212.779 344.98 212.221 345.636C211.877 346.043 211.707 346.57 211.748 347.102C211.79 347.634 212.04 348.128 212.443 348.477L224.46 358.74C224.659 358.912 224.891 359.043 225.141 359.123C225.392 359.204 225.656 359.233 225.918 359.209C226.184 359.192 226.444 359.12 226.682 358.999C226.92 358.878 227.13 358.71 227.301 358.505C227.606 358.148 227.984 357.861 228.411 357.665C228.837 357.469 229.301 357.368 229.771 357.369V357.418ZM257.732 379.785C257.265 379.788 256.802 379.69 256.376 379.499C255.949 379.307 255.569 379.025 255.262 378.673L242.825 364.557C235.909 356.702 234.662 355.282 234.526 355.158C233.38 354.173 231.957 353.568 230.452 353.427C228.948 353.285 227.437 353.614 226.128 354.368L225.745 354.59L224.596 353.602L272.762 297.309L275.591 304.003L247.098 337.349C245.835 338.808 245.026 340.605 244.773 342.518C244.519 344.431 244.831 346.377 245.67 348.114C246.51 349.852 247.84 351.306 249.496 352.297C251.152 353.287 253.062 353.771 254.99 353.688H255.274L266.921 366.533C267.437 367.13 267.721 367.892 267.721 368.682C267.721 369.471 267.437 370.234 266.921 370.831L260.19 378.698C259.886 379.057 259.507 379.345 259.081 379.543C258.654 379.742 258.19 379.845 257.72 379.846L257.732 379.785ZM229.759 352.108C231.791 352.106 233.756 352.828 235.304 354.145C235.415 354.219 235.415 354.219 243.752 363.692L256.213 377.858C256.408 378.071 256.645 378.242 256.908 378.361C257.171 378.479 257.456 378.544 257.744 378.55C258.034 378.546 258.32 378.48 258.582 378.356C258.844 378.233 259.076 378.054 259.263 377.833L265.994 369.966C266.318 369.597 266.496 369.123 266.496 368.632C266.496 368.142 266.318 367.668 265.994 367.298L254.743 354.874C252.049 354.92 249.432 353.97 247.395 352.206C246.279 351.258 245.362 350.099 244.696 348.795C244.029 347.491 243.627 346.068 243.512 344.608C243.398 343.148 243.572 341.68 244.027 340.288C244.481 338.896 245.206 337.608 246.16 336.497L274.158 303.731L272.404 299.582L227.153 352.54C228.009 352.256 228.906 352.11 229.808 352.108H229.759ZM221.583 350.872L216.445 346.476L216.593 346.068C216.979 345.055 217.135 343.969 217.05 342.888C216.964 341.807 216.64 340.759 216.099 339.819L215.889 339.436L219.78 334.879L226.177 345.512L221.583 350.872ZM217.878 346.105L221.422 349.131L224.633 345.426L219.582 337.028L217.359 339.621C218.379 341.643 218.565 343.985 217.878 346.142V346.105ZM254.595 349.588C253.473 349.586 252.375 349.262 251.431 348.655C250.487 348.049 249.736 347.185 249.267 346.166C248.798 345.146 248.631 344.014 248.785 342.902C248.939 341.791 249.408 340.747 250.137 339.893L250.754 339.164L251.199 339.881C252.13 341.35 253.358 342.607 254.804 343.573C256.251 344.539 257.883 345.191 259.597 345.488L260.671 345.673L259.078 347.538C258.577 348.126 257.964 348.608 257.275 348.958C256.586 349.308 255.835 349.518 255.064 349.576H254.595V349.588ZM250.655 341.252C250.015 342.247 249.779 343.449 249.996 344.613C250.213 345.777 250.865 346.814 251.821 347.512C252.776 348.211 253.962 348.518 255.137 348.371C256.311 348.224 257.385 347.635 258.14 346.723L258.35 346.476C255.25 345.694 252.526 343.844 250.655 341.252ZM228.906 342.301L222.509 331.68L226.597 326.901L232.994 337.522L228.906 342.301ZM223.966 331.804L229.018 340.202L231.463 337.497L226.412 329.111L223.966 331.804ZM261.61 341.684C259.883 341.685 258.199 341.149 256.79 340.151C255.381 339.153 254.316 337.743 253.743 336.114L253.619 335.768L257.324 331.445L263.808 336.978C264.366 337.464 264.743 338.122 264.88 338.848C265.016 339.574 264.904 340.325 264.562 340.98L264.438 341.202L264.204 341.276C263.369 341.542 262.498 341.68 261.622 341.684H261.61ZM255.04 336.027C255.702 337.648 256.939 338.968 258.514 339.733C260.088 340.499 261.89 340.657 263.574 340.177C263.718 339.787 263.741 339.362 263.64 338.959C263.538 338.556 263.317 338.193 263.006 337.917L257.46 333.187L255.04 336.027ZM235.699 334.348L229.302 323.727L264.908 282.057L273.849 289.701L235.699 334.348ZM230.821 323.85L235.872 332.236L272.108 289.837L265.056 283.835L230.821 323.85Z" fill="#161615"/>
<path d="M4.31339 303.707C4.34164 303.383 5.0037 295.754 11.5699 291.156C17.7046 286.862 20.2769 284.855 20.3024 284.833L21.8622 283.625L22.0022 285.609C22.0666 286.72 22.2305 287.823 22.4919 288.904L22.7533 289.091C28.6029 293.199 31.8832 300.357 32.5017 310.364L32.5373 310.958C33.4945 326.458 34.0306 334.993 37.8879 336.727C41.7453 338.462 46.0177 335.45 46.0753 335.417L46.4493 335.147L46.9035 335.269C49.285 335.79 59.3364 346.777 62.2768 352.043C63.2287 353.758 63.5126 354.914 63.2196 355.79C63.1188 356.043 62.9601 356.269 62.7562 356.449C62.5524 356.629 62.309 356.759 62.0457 356.828C57.1923 358.448 26.3836 348.928 21.5953 345.727C18.5886 343.724 19.0581 339.138 19.615 333.827C20.1291 328.893 20.7021 323.303 18.5685 319.023C14.2549 310.381 4.91289 304.811 4.8657 304.77L4.29435 304.432L4.31339 303.707ZM21.7311 333.994C21.2495 338.626 20.8401 342.624 22.7797 343.922C28.2628 347.582 57.4535 355.802 61.2377 354.831C61.0905 353.818 59.411 350.749 54.8965 345.509C52.5016 342.555 49.8103 339.854 46.8645 337.448C45.4104 338.334 41.2626 340.445 37.1262 338.626C32.075 336.406 31.5491 327.942 30.5166 311.088L30.4719 310.492C29.8943 301.167 26.9538 294.558 21.618 290.821C21.3481 290.659 21.1071 290.453 20.9052 290.212C20.4879 289.421 20.24 288.553 20.1772 287.661C18.8054 288.676 16.4478 290.39 12.8428 292.909C9.48132 295.413 7.22849 299.129 6.56282 303.268C8.79002 304.692 16.5278 310.036 20.5327 318.05C21.0679 319.133 21.4706 320.277 21.7321 321.457C22.6631 325.503 22.2071 329.965 21.7856 334.009" fill="#303030"/>
<path d="M-0.148806 332.639C0.651943 330.027 1.31999 327.376 1.85278 324.697C3.4056 316.722 3.20554 313.835 3.08161 312.118C3.04646 311.632 3.02154 311.216 3.0305 310.819C3.05282 307.965 3.66554 305.147 4.83017 302.541L5.33889 301.587L6.27887 302.111C8.89555 303.611 11.3608 305.36 13.6401 307.335C17.2558 310.552 16.9161 312.983 16.8662 313.242L16.7202 313.787L16.2123 314.011C16.2123 314.011 11.5788 316.118 9.20756 324.205C8.53494 326.497 7.99075 328.746 7.52802 330.763C6.40543 335.534 5.59208 339.005 3.64833 340.12C3.29737 340.326 2.90687 340.455 2.50244 340.499C2.09802 340.544 1.6888 340.502 1.30162 340.377C0.865372 340.278 0.454052 340.09 0.0929396 339.826C-0.268173 339.562 -0.571437 339.227 -0.798245 338.841C-0.923047 338.613 -1.01494 338.369 -1.07115 338.116C-1.36882 336.829 -0.877406 335.14 -0.141506 332.612L-0.148806 332.639ZM14.7116 312.382C14.2586 310.982 13.3888 309.754 12.2186 308.862C10.3554 307.25 8.36205 305.794 6.25905 304.51C5.56998 306.549 5.19572 308.681 5.14915 310.832C5.14571 311.172 5.16708 311.528 5.20353 311.937C5.3255 313.771 5.53868 316.826 3.93344 325.069C3.26429 328.511 2.49985 331.11 1.88984 333.205C1.23182 335.442 0.725156 337.224 1.04542 337.846C1.25711 338.106 1.55683 338.28 1.88795 338.334C1.99912 338.382 2.12006 338.403 2.24078 338.394C2.3615 338.386 2.47849 338.349 2.5821 338.287C3.73369 337.622 4.58534 334.044 5.47169 330.3C5.94594 328.276 6.48412 325.977 7.17135 323.63C9.31269 316.328 13.1393 313.382 14.6946 312.446L14.7116 312.382Z" fill="#303030"/>
<path d="M239.589 22.55C239.831 20.4429 240.472 18.4011 241.477 16.5332C241.732 15.9619 242.109 15.4535 242.581 15.0439C243.054 14.6343 243.611 14.3334 244.212 14.1626C244.506 14.1219 244.804 14.1237 245.098 14.168C245.32 14.2055 245.538 14.263 245.75 14.3397C246.032 14.4203 245.75 14.3397 245.955 14.4581C246.466 14.709 246.937 15.0358 247.35 15.4274C249.836 17.895 251.759 20.8703 252.989 24.1497C253.663 25.6715 254.139 27.2738 254.405 28.9172C254.498 29.5235 254.514 30.1392 254.454 30.7496C254.42 31.1229 254.285 31.4797 254.063 31.7815C254.205 31.5355 254.01 31.8737 253.913 31.8997C254.128 31.7641 253.782 31.9608 253.727 31.984C253.885 31.9245 253.214 32.1388 253.069 32.1778C252.718 32.2725 252.357 32.3256 251.993 32.336C250.913 32.3718 249.857 32.0145 249.02 31.3303C248.029 30.5321 247.254 29.4972 246.767 28.3209C246.215 26.909 244.053 28.1209 244.694 29.5434C246.289 33.3618 250.444 35.8012 254.483 34.3203C257.942 33.0643 257.024 28.4752 256.207 25.7482C254.976 21.6927 252.894 17.9466 250.1 14.7599C249.061 13.4631 247.667 12.4968 246.088 11.979C245.172 11.7409 244.209 11.749 243.297 12.0025C242.385 12.256 241.557 12.7459 240.895 13.4226C238.708 15.5768 237.652 19.0399 237.286 22.0406C237.215 22.351 237.265 22.6771 237.427 22.9513C237.59 23.2255 237.851 23.4269 238.157 23.5141C238.311 23.5574 238.473 23.5691 238.631 23.5483C238.79 23.5276 238.943 23.4749 239.08 23.3935C239.218 23.312 239.338 23.2035 239.433 23.0745C239.527 22.9454 239.595 22.7985 239.631 22.6427" fill="#303030"/>
<path d="M237.372 34.2951C238.629 36.5598 240.182 38.6468 241.99 40.5009C243.107 41.7684 244.572 42.6804 246.202 43.1242C246.97 43.2991 247.774 43.2308 248.502 42.9286C249.23 42.6265 249.846 42.1054 250.264 41.4377C250.956 40.0212 251.119 38.4043 250.724 36.8783C250.356 34.9914 249.745 33.1599 248.908 31.4293C248.146 29.7213 247.235 28.0837 246.185 26.5357C245.44 25.2304 244.369 24.1409 243.076 23.3741C242.055 22.9206 240.943 22.7083 239.827 22.7534C238.711 22.7986 237.62 23.1001 236.639 23.6347C235.407 24.311 234.348 25.262 233.543 26.4138C232.738 27.5656 232.209 28.8873 231.998 30.2764C231.721 31.7976 234.064 32.4261 234.373 30.8963C234.505 29.8986 234.852 28.9415 235.39 28.0912C235.928 27.2409 236.645 26.5176 237.49 25.9713C238.135 25.5579 238.865 25.2978 239.626 25.211C240.387 25.1243 241.158 25.2133 241.879 25.4712C242.77 25.9902 243.509 26.7329 244.025 27.6257C244.909 28.9294 245.696 30.2971 246.377 31.7175C247.112 33.1742 247.701 34.6998 248.135 36.2722C248.509 37.3922 248.603 38.5867 248.409 39.7514C248.379 39.9217 248.316 40.0843 248.222 40.2295C248.129 40.3748 248.007 40.4998 247.864 40.5971C247.721 40.6943 247.56 40.7619 247.391 40.7958C247.221 40.8297 247.047 40.8292 246.877 40.7943C245.665 40.4624 244.583 39.7663 243.778 38.8C242.121 37.1037 240.701 35.1899 239.559 33.1113C239.397 32.8364 239.132 32.6373 238.823 32.5575C238.514 32.4778 238.186 32.5241 237.912 32.6863C237.637 32.8484 237.438 33.113 237.358 33.422C237.278 33.731 237.324 34.059 237.487 34.3338" fill="#303030"/>
<path d="M274.991 23.2535C269.912 18.4624 264.846 13.6244 259.608 9.01463C257.377 7.05648 254.593 4.75232 251.49 4.68271C246.18 4.62383 245.898 12.1424 247.607 15.6441C248.664 17.8393 250.551 19.2571 252.248 20.9339C253.945 22.6108 254.216 25.4322 254.422 27.6559C254.541 29.2009 256.97 29.2088 256.818 27.6725C256.723 25.4059 256.225 23.1744 255.347 21.0828C254.508 19.7098 253.416 18.5087 252.128 17.5435C251.26 16.8327 250.542 15.9562 250.016 14.965C249.49 13.9738 249.167 12.8878 249.065 11.7703C249.005 10.1228 249.268 7.06295 251.508 7.11257C253.068 7.32644 254.537 7.97104 255.75 8.97395C256.607 9.60702 257.428 10.2866 258.21 11.0095C261.151 13.6094 264.023 16.3059 266.896 18.976L273.266 24.9636C274.4 26.0286 276.13 24.3348 275.003 23.233" fill="#303030"/>
<path d="M255.474 -0.560995L258.34 -0.505677L258.752 -0.486212C258.91 -0.484737 259.067 -0.514401 259.213 -0.573499C259.36 -0.632598 259.493 -0.719974 259.606 -0.830648C259.719 -0.941322 259.809 -1.07313 259.871 -1.21853C259.932 -1.36393 259.965 -1.52009 259.966 -1.67808C259.968 -1.83607 259.938 -1.9928 259.879 -2.13933C259.82 -2.28586 259.733 -2.41932 259.622 -2.53208C259.511 -2.64484 259.379 -2.73469 259.234 -2.79651C259.089 -2.85833 258.933 -2.89091 258.775 -2.89239L255.899 -2.95365L255.486 -2.97309C255.328 -2.97457 255.172 -2.94491 255.025 -2.88581C254.878 -2.82671 254.745 -2.73933 254.632 -2.62866C254.52 -2.51798 254.43 -2.38619 254.368 -2.24079C254.306 -2.09539 254.273 -1.93923 254.272 -1.78124C254.27 -1.62325 254.3 -1.46651 254.359 -1.31998C254.418 -1.17345 254.506 -1.04001 254.616 -0.927247C254.727 -0.814487 254.859 -0.724635 255.004 -0.662812C255.15 -0.600989 255.306 -0.568394 255.464 -0.566919" fill="#303030"/>
<path d="M235.396 39.2093C236.667 38.7128 237.943 38.2061 239.224 37.7156L239.767 37.5095C240.071 37.4107 240.33 37.2061 240.496 36.9329C240.653 36.661 240.696 36.3379 240.615 36.0347C240.533 35.7315 240.335 35.473 240.063 35.316C239.926 35.2359 239.775 35.1841 239.617 35.1638C239.46 35.1434 239.3 35.1548 239.147 35.1974C237.867 35.6879 236.596 36.1844 235.319 36.6911C235.135 36.749 234.956 36.8231 234.777 36.8971C234.471 36.9871 234.21 37.1867 234.043 37.4576C233.886 37.7295 233.843 38.0526 233.925 38.3558C234.006 38.659 234.204 38.9176 234.476 39.0745C234.614 39.157 234.767 39.2106 234.926 39.232C235.085 39.2534 235.247 39.2422 235.402 39.199" fill="#303030"/>
<path d="M261.388 17.7916L263.365 15.1474C263.442 15.0142 263.525 14.8707 263.653 14.767C263.733 14.6301 263.785 14.4785 263.806 14.3213C263.826 14.164 263.814 14.0042 263.772 13.8514C263.732 13.6959 263.661 13.5501 263.563 13.423C263.464 13.2958 263.341 13.19 263.201 13.1119C263.064 13.0318 262.913 12.98 262.755 12.9596C262.598 12.9393 262.438 12.9507 262.286 12.9933C261.983 13.0881 261.723 13.2865 261.552 13.5538L259.568 16.2081L259.286 16.5783C259.206 16.7152 259.154 16.8668 259.134 17.0241C259.114 17.1814 259.125 17.3411 259.168 17.4939C259.205 17.65 259.274 17.7968 259.37 17.9254C259.466 18.054 259.588 18.1618 259.727 18.242C259.866 18.3223 260.02 18.3735 260.179 18.3924C260.339 18.4113 260.5 18.3976 260.654 18.3521C260.953 18.2498 261.21 18.053 261.388 17.7916Z" fill="#303030"/>
<path d="M256.049 3.20128L259.528 2.83212L260.025 2.77707C260.339 2.7711 260.64 2.64721 260.867 2.42994C260.985 2.31781 261.077 2.18283 261.14 2.03335C261.203 1.88387 261.234 1.72308 261.232 1.56096C261.233 1.40451 261.203 1.24947 261.143 1.10481C261.084 0.96015 260.996 0.828749 260.885 0.718183C260.773 0.601066 260.638 0.508224 260.489 0.445432C260.339 0.38264 260.178 0.351238 260.016 0.353154L256.537 0.722301L256.04 0.77735C255.727 0.787735 255.427 0.911005 255.197 1.12448C255.081 1.23378 254.987 1.36565 254.923 1.5121C254.858 1.65855 254.824 1.81654 254.822 1.97654C254.821 2.13654 254.852 2.2952 254.913 2.44297C254.974 2.59073 255.065 2.72451 255.18 2.83623C255.292 2.95335 255.427 3.04619 255.576 3.10898C255.726 3.17178 255.886 3.20319 256.049 3.20128Z" fill="#303030"/>
<path d="M226.375 30.3795L227.992 29.9463L228.229 29.8915C228.381 29.8535 228.521 29.7802 228.639 29.6775C228.774 29.5846 228.887 29.4627 228.968 29.3208C229.05 29.1828 229.097 29.0276 229.107 28.8677C229.143 28.7147 229.136 28.5546 229.087 28.4052C229.049 28.2491 228.981 28.1023 228.884 27.9737C228.788 27.8451 228.667 27.7373 228.528 27.6571C228.389 27.5768 228.235 27.5257 228.076 27.5067C227.916 27.4878 227.755 27.5015 227.601 27.5471L225.984 27.9803L225.741 28.0453C225.587 28.0773 225.445 28.1514 225.331 28.2593C225.198 28.3487 225.088 28.4672 225.008 28.6058C224.928 28.7443 224.88 28.8992 224.869 29.0588C224.833 29.2119 224.84 29.372 224.889 29.5214C224.927 29.6774 224.996 29.8243 225.092 29.9529C225.188 30.0815 225.309 30.1892 225.448 30.2695C225.587 30.3497 225.741 30.4009 225.9 30.4198C226.06 30.4387 226.221 30.425 226.375 30.3795Z" fill="#303030"/>
<path d="M251.834 5.83813C251.834 5.83813 251.213 9.73033 252.956 10.9963C254.699 12.2622 257.051 9.6565 257.051 9.6565L251.834 5.83813Z" fill="#303030"/>
<path d="M253.177 26.9237L248.596 29.1304C248.596 29.1304 249.969 31.6999 252.239 30.9877C253.687 30.539 253.208 26.9414 253.208 26.9414" fill="#303030"/>
<path d="M246.749 35.6909L243.646 37.9175C243.646 37.9175 245.595 40.5057 247.42 38.9077C248.287 38.1642 246.749 35.6909 246.749 35.6909Z" fill="#303030"/>
<path d="M286.589 60.0734C284.513 58.5329 281.156 58.4533 278.713 58.5878C275.164 58.8332 271.671 59.6028 268.347 60.8716C264.434 62.1773 260.707 63.9857 257.259 66.2514C254.997 67.8019 252.224 70.096 252.334 73.1252C252.384 74.6714 254.813 74.6793 254.73 73.1418C254.798 72.5137 254.996 71.9067 255.312 71.3596C255.628 70.8124 256.055 70.3372 256.564 69.9641C257.992 68.6821 259.576 67.5852 261.278 66.6994C265.516 64.3368 270.079 62.6146 274.821 61.5889C277.527 60.9263 280.342 60.8423 283.082 61.3424C283.914 61.4492 284.71 61.7494 285.405 62.2189C286.659 63.148 287.862 61.0407 286.589 60.1688" fill="#303030"/>
<path d="M267.533 66.5655C263.523 68.3505 260.665 70.5546 261.098 71.5564C261.531 72.5581 265.133 71.9311 269.125 70.1768C273.117 68.4226 275.983 66.1817 275.544 65.1903C275.105 64.1988 271.515 64.8053 267.533 66.5655Z" fill="#303030"/>
<path d="M269.962 67.2842L272.224 76.5039C272.289 76.765 272.441 76.9961 272.655 77.1593C272.869 77.3225 273.132 77.408 273.401 77.4017C274 77.3989 274.598 77.4686 275.181 77.6093C275.627 77.6894 276.061 77.8296 276.471 78.0262C276.625 78.088 276.77 78.1717 276.901 78.2747C277.024 78.3457 277.034 78.3517 277.009 78.5145C276.949 79.1699 276.725 79.7995 276.355 80.3441C275.986 80.8886 275.484 81.3304 274.897 81.6278C274.804 81.67 274.677 81.6782 274.723 81.6916C274.485 81.5756 274.28 81.4009 274.128 81.184C273.87 80.8924 273.64 80.5767 273.442 80.2413C273.343 80.0479 273.192 79.8856 273.006 79.7724C272.82 79.6591 272.607 79.5992 272.389 79.5993C272.172 79.5994 271.959 79.6595 271.773 79.7729C271.587 79.8863 271.436 80.0487 271.337 80.2422C271.112 80.6906 270.861 81.1253 270.585 81.544C270.226 82.179 269.726 82.7224 269.122 83.1319C269.157 83.0704 269.122 83.1319 269.122 83.1319C269.122 83.1319 268.995 82.9493 269.122 83.1319C269.249 83.3145 268.989 83.055 268.968 83.0431C268.501 82.6288 268.168 82.0844 268.012 81.4797C267.92 81.1819 267.949 80.8597 268.092 80.5831C267.944 80.8393 268.309 80.4211 268.365 80.3714C268.421 80.3217 268.677 80.1144 268.838 80.0021C268.998 79.8741 269.166 79.7566 269.342 79.6505C269.569 79.5126 269.747 79.3061 269.849 79.0606C269.952 78.8151 269.973 78.5434 269.911 78.2847L266.618 69.0986C266.096 67.6355 263.758 68.2535 264.29 69.7225L267.642 78.8061C267.834 78.3562 268.021 77.8902 268.212 77.4403C266.774 78.3456 265.474 79.413 265.623 81.2621C265.764 82.8879 266.96 85.0543 268.687 85.4232C270.929 85.8971 272.621 83.0609 273.44 81.3336L271.341 81.3242C272.16 82.6991 273.492 84.2745 275.299 83.9375C277.446 83.5096 278.979 81.21 279.402 79.1991C280.057 75.8869 275.947 75.0039 273.473 74.9562L274.66 75.86L272.397 66.6403C272.017 65.122 269.682 65.7561 270.053 67.2685" fill="#303030"/>
<path d="M268.358 68.2857C270.378 67.4782 272.509 66.9804 274.678 66.809C275.027 66.4641 275.189 66.1609 275.107 65.9227C274.793 65.0712 271.355 65.5331 267.42 66.9514C263.485 68.3697 260.552 70.23 260.861 71.0917C260.966 71.3843 261.451 71.5142 262.188 71.516C264.025 70.0593 266.111 68.9484 268.345 68.2372" fill="#303030"/>
<path d="M251.171 6.1803C251.43 7.69656 253.759 7.07268 253.516 5.55208C252.607 0.247027 252.299 -5.14368 252.598 -10.5178C252.798 -13.4913 253.074 -18.4436 255.766 -20.4561C259.056 -22.9579 260.225 -15.4902 260.779 -13.3251C263.08 -4.12436 263.2 6.15457 267.247 14.792C269.42 19.4087 273.619 23.4045 275.061 28.269C275.942 31.265 275.719 34.444 276.707 37.4199C278.789 43.6379 281.049 49.8082 283.196 56.0089C284.28 59.1497 285.544 61.6702 282.817 64.6193C279.988 67.5125 276.568 69.7617 272.791 71.2136L273.715 73.7561C278.886 71.6165 283.575 68.5147 286.014 64.4559C287.688 61.555 286.798 59.0728 285.802 56.229L281.48 43.7835C280.32 40.9152 279.358 37.9713 278.599 34.9721C278.109 32.5299 278.163 30.0461 277.476 27.6132C276.697 24.8673 275.075 22.8238 273.481 20.4956C269.79 15.026 267.36 8.80535 266.365 2.28252C265.34 -3.6122 264.414 -9.55933 262.861 -15.3213C262.182 -17.7908 261.06 -23.3997 257.735 -23.7478C254.41 -24.0958 252.174 -19.8922 251.362 -17.2312C249.142 -9.92976 250.076 -1.27243 251.273 6.17046" fill="#303030"/>
<path d="M266.378 73.4435C263.489 74.4451 260.449 74.9459 257.391 74.9245C253.738 74.7424 253.599 69.1129 252.523 66.2643C250.667 61.4068 247.623 57.9681 243.674 54.6766C239.47 51.1153 233.558 47.8385 230.353 43.2818C226.879 38.3378 224.501 31.3066 222.815 25.5631C222.289 23.7286 220.691 14.114 224.989 18.9325C228.134 22.4568 229.504 27.4707 231.767 31.5519C231.929 31.8267 232.194 32.0259 232.503 32.1056C232.812 32.1853 233.14 32.139 233.415 31.9769C233.69 31.8148 233.889 31.5501 233.969 31.2411C234.048 30.9322 234.002 30.6042 233.84 30.3293C232.343 27.6198 225.607 9.53034 220.24 16.505C218.486 18.786 219.507 22.6283 220.154 25.1064C221.345 29.3549 222.903 33.492 224.81 37.4712C225.751 39.8804 226.883 42.2109 228.194 44.4409C231.742 49.8241 238.753 53.5169 243.504 57.7633C246.422 60.2051 248.694 63.3284 250.117 66.857C251.009 69.1484 251.47 71.6154 252.337 73.8787C253.597 77.0937 255.821 77.5029 259.135 77.2299C261.887 77.0088 264.614 76.5534 267.288 75.8685L266.378 73.4435Z" fill="#303030"/>
<path d="M3.93953 36.8486C3.93953 36.8486 -4.85561 19.7962 -1.90033 11.843C1.05494 3.88973 8.61365 0.839525 14.362 0.665747C20.1103 0.491969 28.1051 3.98017 31.7269 2.33913C35.3486 0.698095 44.8784 -2.55128 54.3803 1.8869C63.8823 6.32509 67.5652 11.6646 70.2523 19.1434C72.9395 26.6222 7.01621 40.8702 7.01621 40.8702L3.93953 36.8486Z" fill="#B63847"/>
<path d="M65.8195 23.6589C58.6182 10.9494 41.8744 12.5385 35.574 13.2018C29.2737 13.8651 20.6314 12.7772 16.0013 18.4463C11.3712 24.1153 13.1957 38.2908 13.1957 38.2908L38.0095 37.9683L65.8195 23.6589Z" fill="#161615"/>
<path d="M56.2161 21.3482C55.1443 20.3701 53.6312 16.4231 54.3182 14.2652C54.4254 13.8657 54.6507 13.508 54.9646 13.2388C55.2785 12.9695 55.6664 12.8013 56.0775 12.7563C56.7253 12.6713 57.9664 13.6672 58.8422 14.6219C59.718 15.5766 61.3146 17.616 60.8432 19.7288C60.4494 21.5171 59.5881 22.1275 59.0041 22.3092C58.502 22.4115 57.9819 22.381 57.4951 22.2207C57.0084 22.0605 56.5719 21.776 56.2288 21.3954L56.2161 21.3482ZM55.0869 14.4894C54.475 16.3615 55.8524 19.9906 56.7886 20.8405C57.0358 21.1255 57.3524 21.3417 57.7077 21.4682C58.0631 21.5946 58.4451 21.6271 58.8167 21.5624C59.4659 21.3884 59.928 20.6573 60.1817 19.5265C60.2335 18.8155 60.138 18.1014 59.9012 17.429C59.6644 16.7566 59.2915 16.1403 58.8056 15.6186C58.1594 14.6941 57.2809 13.9563 56.2587 13.4795C55.9887 13.5029 55.733 13.6111 55.5283 13.7887C55.3236 13.9663 55.1803 14.2041 55.1191 14.4681" fill="#FBFBF2"/>
<path d="M59.1184 22.7336C58.5404 22.8592 57.9396 22.8305 57.3761 22.6506C56.8127 22.4707 56.3065 22.1458 55.9083 21.7085C54.7694 20.6219 53.1121 16.5616 53.9303 14.0903C54.053 13.6027 54.3232 13.1649 54.7039 12.8364C55.0846 12.508 55.5573 12.305 56.0576 12.255C57.1816 12.1056 58.8779 13.9033 59.2129 14.2563C60.0225 15.1528 61.8548 17.4581 61.3246 19.7764C60.8783 21.7939 59.8848 22.4776 59.1238 22.7068L59.1184 22.7336ZM55.5133 14.615C54.9775 16.2516 56.2515 19.7313 57.0948 20.5175C57.6402 21.042 58.2758 21.2892 58.6677 21.1462C59.0596 21.0033 59.5179 20.3997 59.7332 19.4563C59.766 18.8117 59.6678 18.1671 59.4446 17.5615C59.2215 16.9559 58.8779 16.4018 58.4348 15.9325C57.8459 15.1409 57.1 14.4793 56.2439 13.9891C56.078 14.0095 55.921 14.0755 55.7904 14.1798C55.6597 14.284 55.5605 14.4224 55.5038 14.5796L55.5133 14.615Z" fill="#303030"/>
<path d="M49.4756 23.6726C47.6365 22.9001 47.0914 18.6937 47.2929 16.0459C47.3378 15.4787 47.35 14.9093 47.3294 14.3407C47.3309 12.3158 47.3135 10.2202 49.6272 9.60021C51.7758 9.02452 55.2277 13.5022 56.4243 16.079C56.8791 16.8742 57.1666 17.754 57.269 18.6643C57.3715 19.5746 57.2869 20.4962 57.0203 21.3726C56.8412 21.8158 56.567 22.2143 56.2169 22.5399C55.8669 22.8654 55.4496 23.1101 54.9946 23.2566C54.4043 23.4147 53.833 23.6437 53.3962 23.7608C52.0785 24.211 50.6451 24.1879 49.3426 23.6955L49.4756 23.6726ZM49.7171 10.3606C48.0526 10.8066 47.9747 12.1686 47.9789 14.3564C47.9828 14.9374 47.9898 15.5302 47.9464 16.1238C47.7301 18.9527 48.3886 22.4961 49.648 22.9937C51.0784 23.61 52.5407 23.3067 54.763 22.5342C55.1084 22.4215 55.4243 22.2333 55.6878 21.9832C55.9513 21.7332 56.1557 21.4275 56.2862 21.0885C56.5101 20.3121 56.5752 19.4986 56.4777 18.6964C56.3802 17.8943 56.122 17.1201 55.7185 16.42C54.2696 13.4679 51.1101 9.98734 49.7407 10.3543" fill="#FBFBF2"/>
<path d="M53.6526 24.1984C52.231 24.6779 50.6864 24.6441 49.2872 24.1029C47.0306 23.1892 46.657 18.2536 46.8299 16.0183C46.8741 15.4751 46.8735 14.9059 46.8673 14.3635C46.8602 12.3536 46.8541 9.87538 49.4984 9.16683C52.1427 8.45829 55.6596 13.2729 56.8979 15.8638C57.3871 16.7171 57.6941 17.6626 57.7993 18.6405C57.9045 19.6185 57.8058 20.6076 57.5093 21.5455C57.3121 22.0402 57.0094 22.4861 56.6224 22.852C56.2354 23.2179 55.7732 23.4951 55.2682 23.6643C54.6661 23.8256 54.1067 24.0514 53.6345 24.178L53.6526 24.1984ZM49.9317 10.7841C48.6568 11.1257 48.5335 12.0824 48.5449 14.3442C48.5433 14.9519 48.5543 15.6069 48.4951 16.1415C48.2618 19.19 49.0834 22.209 49.9222 22.5536C51.3304 23.0872 52.6008 22.8228 54.7081 22.0936C54.9916 22.0018 55.2511 21.848 55.4677 21.6434C55.6842 21.4387 55.8524 21.1883 55.96 20.9104C56.1588 20.192 56.2118 19.4411 56.1159 18.7019C56.02 17.9627 55.777 17.2502 55.4014 16.6064C53.8878 13.5072 50.9029 10.5365 49.9553 10.7778L49.9317 10.7841Z" fill="#303030"/>
<path d="M54.5855 1.94571C45.0331 -2.49163 35.497 0.734147 31.9288 2.38614C28.3606 4.03813 20.3272 0.54762 14.5757 0.709593C8.82426 0.871567 1.26155 3.85959 -1.69836 11.89C-4.65827 19.9204 4.1415 36.8956 4.1415 36.8956L7.24642 40.8337C7.24642 40.8337 9.39979 40.3705 12.9021 39.5586C12.8584 38.5455 12.8092 37.5591 12.7844 36.6168L12.5129 36.6896C12.4477 36.163 10.9577 23.897 15.6161 18.1444C19.0899 13.8734 24.8892 13.5594 29.9863 13.2691C31.8017 13.2068 33.6121 13.0427 35.4091 12.7777C48.711 10.4787 58.6072 13.508 64.9845 21.8201C65.4386 22.3779 65.837 22.9788 66.1738 23.6144C69.2886 21.97 70.9998 20.4234 70.518 19.0974C67.8339 11.6304 64.1897 6.29323 54.646 1.84092" fill="#161615"/>
<path d="M35.2435 34.1164C21.2546 37.8647 8.19899 40.705 7.06486 40.9583L6.84057 41.0184L3.55665 36.8373C3.1921 36.1378 -5.27815 19.5424 -2.3214 11.5002C0.635347 3.45805 8.23009 0.259016 14.2925 0.0769882C17.0728 0.135468 19.8376 0.506618 22.5348 1.18344C26.1406 1.93804 29.5589 2.65429 31.5448 1.75523C34.3868 0.462302 44.4339 -3.40647 54.5541 1.30887C64.3515 5.8577 67.9629 11.3555 70.6161 18.7549C70.706 19.0199 70.7357 19.3018 70.7029 19.5798C70.6702 19.8578 70.5758 20.125 70.4267 20.3619C68.1423 24.4914 51.1158 29.8887 35.2734 34.1337L35.2435 34.1164ZM7.17336 40.1827C11.1991 39.2938 65.7012 27.2332 69.7595 19.9966C69.8555 19.8532 69.918 19.6901 69.9423 19.5193C69.9666 19.3485 69.9522 19.1744 69.9 19.01C67.3092 11.7963 63.783 6.42757 54.2306 1.99023C44.3916 -2.57272 34.6066 1.18789 31.844 2.44686C29.67 3.44692 26.1446 2.70875 22.405 1.92676C19.7662 1.26075 17.0614 0.890631 14.3406 0.823238C8.53013 1.00103 1.26655 3.97216 -1.58186 11.7576C-4.37464 19.3256 3.81183 35.6175 4.23795 36.4523L7.17336 40.1827Z" fill="#303030"/>
<path d="M35.4016 34.7064C21.2356 38.5022 7.76049 41.4296 7.19933 41.5546L6.59727 41.716L3.07996 37.2305C2.64521 36.4107 -5.93869 19.58 -2.89405 11.2992C0.150579 3.01834 8.02147 -0.330617 14.2823 -0.527839C17.1064 -0.467847 19.915 -0.0914763 22.6553 0.594214C26.1807 1.33237 29.4919 2.02671 31.2631 1.22317C34.1609 -0.0973747 44.4259 -4.04987 54.788 0.765162C64.7736 5.40273 68.4552 11.0209 71.1732 18.5674C71.2909 18.915 71.3311 19.2841 71.2912 19.6488C71.2512 20.0136 71.132 20.3652 70.9419 20.6791C68.9709 24.2312 57.0261 28.9501 35.4111 34.7418L35.4016 34.7064ZM7.3874 39.5178C29.0761 34.7565 66.1106 25.3139 69.2064 19.727C69.3761 19.4158 69.3295 19.2892 69.3019 19.2333C66.764 12.1699 63.308 6.92153 53.9525 2.55796C44.3466 -1.89034 34.7678 1.78973 32.0729 3.01792C29.7164 4.09219 26.102 3.35256 22.264 2.53369C19.6838 1.88418 17.0403 1.51908 14.3807 1.4449C8.75672 1.61066 1.76698 4.47047 -0.991233 11.9787C-3.74944 19.4869 4.45007 35.4969 4.79965 36.1877L7.3874 39.5178Z" fill="#303030"/>
<path d="M15.5371 59.6408C15.5371 59.6408 26.1457 82.2805 50.4126 75.5252C74.6795 68.7698 75.6623 44.7196 75.6623 44.7196L48.799 45.5154L15.5371 59.6408Z" fill="#161615"/>
<path d="M50.1678 76.1214C37.6663 79.4712 28.8507 74.9503 23.6544 70.5731C20.189 67.6159 17.3262 64.0183 15.2228 59.9773L15.0507 59.6185L48.7572 45.3107L76.0204 44.4964L76.0036 44.9058C75.6192 49.4238 74.4124 53.8336 72.4426 57.9178C70.3416 62.355 67.2913 66.2762 63.5074 69.4044C59.7236 72.5325 55.2987 74.791 50.5456 76.0202L50.1796 76.1182L50.1678 76.1214ZM16.0879 59.9479C18.1381 63.7603 20.8805 67.1574 24.1748 69.9655C31.603 76.2499 40.405 78.0288 50.3345 75.2796C54.9946 74.0862 59.3344 71.8806 63.0454 68.8197C66.7563 65.7588 69.7472 61.9178 71.8053 57.5698C73.6653 53.6939 74.8428 49.5261 75.286 45.2499L48.9139 45.99L16.0879 59.9479Z" fill="#303030"/>
<path d="M50.2886 76.5708C37.5864 79.9743 28.633 75.3639 23.3491 70.8962C19.8387 67.885 16.9356 64.2309 14.7961 60.1305L14.433 59.3422L48.6399 44.8244L48.7225 44.8023L76.5517 43.9754L76.5135 44.8713C76.1152 49.4538 74.8918 53.9266 72.9024 58.074C70.7774 62.5864 67.6821 66.574 63.8378 69.7518C59.9935 72.9297 55.4948 75.2195 50.6632 76.4578L50.2886 76.5708ZM16.7241 60.1959C18.726 63.7733 21.3428 66.9697 24.4545 69.6385C31.762 75.8033 40.4161 77.5966 50.2062 74.8468C54.8014 73.6716 59.0816 71.4996 62.7433 68.4849C66.405 65.4702 69.3584 61.6867 71.394 57.4027C73.1454 53.721 74.2856 49.7788 74.7699 45.7307L48.9615 46.4969L16.7241 60.1959Z" fill="#303030"/>
<path d="M2.97387 37.2593C2.22451 38.0042 2.30309 39.8557 3.01435 42.1324C3.7256 44.4091 3.3191 46.1502 3.75956 47.1329C4.20003 48.1157 4.94461 50.6112 5.76426 53.3396C6.5839 56.068 7.55036 59.7693 8.4171 61.068C9.28385 62.3667 9.93269 64.4577 10.6193 64.5647C11.3059 64.6718 17.0676 63.1785 20.4057 61.9425C23.7437 60.7064 40.4997 56.1408 43.0879 55.2701C45.6761 54.3995 59.3495 50.7484 62.5175 50.1526C65.6855 49.5567 76.6455 48.151 78.4572 45.7044C80.2689 43.2578 79.364 36.3389 78.4063 34.0397C77.4486 31.7405 76.4254 25.372 75.0853 23.2512C73.7452 21.1304 72.2465 18.0398 70.3535 18.294C66.8016 19.0358 63.294 19.9757 59.847 21.1092C57.0345 22.04 47.9773 24.8338 45.3448 25.5392C42.7123 26.2445 29.9983 29.6512 27.8913 30.0513C25.7843 30.4514 13.7628 34.3178 10.925 35.1541C8.08714 35.9905 6.24595 36.1548 4.95921 36.4996C3.67246 36.8444 3.75464 36.4428 2.95026 37.2657" fill="#161615"/>
<path d="M73.513 48.4083C70.8804 49.1137 67.6439 49.6899 64.5396 50.1927L62.5679 50.5312C59.3024 51.1405 45.6353 54.8153 43.1856 55.6362C42.1421 55.9917 38.8257 56.9309 34.9695 58.0274C29.3961 59.6094 22.4596 61.5819 20.4797 62.3148C17.5572 63.4016 11.4053 65.1386 10.4927 64.9909C9.86192 64.8562 9.43264 64.0096 8.88022 62.8924C8.62959 62.3479 8.34444 61.82 8.02652 61.3118C7.03453 59.3043 6.27679 57.1893 5.76822 55.0086C5.62588 54.4774 5.4867 53.958 5.35701 53.474C4.51838 50.6747 3.7873 48.2768 3.36497 47.3145C3.15713 46.7047 3.05803 46.0632 3.0722 45.4192C3.05754 44.3524 2.90114 43.2923 2.6071 42.2668C2.20854 40.7793 1.56219 38.131 2.66694 37.0126C2.82162 36.806 3.01956 36.6357 3.24691 36.5136C3.47426 36.3915 3.72553 36.3205 3.98317 36.3056C4.27726 36.2819 4.56831 36.2294 4.85211 36.1487C5.33612 36.019 5.87915 35.8735 6.53012 35.8003C7.96997 35.5553 9.39389 35.2244 10.7943 34.8095L15.047 33.4929C19.7152 32.0269 26.2651 29.9809 27.796 29.6972C29.3269 29.4136 35.3451 27.8389 45.2259 25.1914C47.8938 24.4765 56.936 21.6741 59.7163 20.7646C63.2001 19.6122 66.7475 18.6617 70.3408 17.9178C72.1984 17.6731 73.6104 20.0151 74.8575 22.0722C75.05 22.4129 75.2512 22.7386 75.4492 23.0525C76.4316 25.1605 77.1501 27.3818 77.5882 29.666C77.9009 31.1006 78.3049 32.5137 78.7977 33.8968C79.7491 36.1724 80.7614 43.3029 78.8106 45.9386C78.0741 46.9204 76.1014 47.7274 73.5751 48.4043L73.513 48.4083ZM51.4165 52.545C55.867 51.3525 60.7111 50.1178 62.4812 49.7826L64.4765 49.4378C68.4647 48.7867 76.7513 47.414 78.1952 45.4835C79.8969 43.193 79.0149 36.4071 78.0911 34.1874C77.5894 32.7686 77.1759 31.3201 76.8531 29.8503C76.4251 27.6447 75.7392 25.497 74.8096 23.4516C74.6066 23.1348 74.4055 22.8091 74.2062 22.4745C73.0868 20.6109 71.8711 18.482 70.4425 18.675C66.9142 19.4103 63.4301 20.3439 60.0069 21.4712C57.2384 22.3775 48.1608 25.1894 45.481 25.9075C35.5766 28.5614 29.3632 30.163 27.9921 30.4292C26.621 30.6953 19.7729 32.8086 15.3258 34.2026L11.073 35.5193C9.64517 35.9417 8.19374 36.2799 6.72623 36.5322C6.11237 36.6967 5.52043 36.7541 5.10725 36.8648C4.78295 36.9501 4.45318 37.0131 4.12026 37.0533C3.78972 37.1419 3.69991 37.09 3.27137 37.5212C2.66514 38.1391 2.71124 39.8222 3.39171 42.0312C3.70073 43.1161 3.86903 44.2361 3.89246 45.3639C3.8796 45.9175 3.95493 46.4696 4.11563 46.9995C4.55926 47.9941 5.29666 50.4156 6.14162 53.2384C6.27447 53.7342 6.41049 54.2419 6.55283 54.7731C7.05512 56.8774 7.77714 58.9231 8.70697 60.8764C9.04779 61.4111 9.35325 61.9674 9.62139 62.542C9.94335 63.1769 10.431 64.147 10.7019 64.2136C13.9718 63.6655 17.1817 62.8054 20.2876 61.6451C22.3029 60.9027 28.9561 59.0061 34.8364 57.3419C38.6731 56.3139 41.891 55.3377 42.9817 54.9696C44.0724 54.6014 47.6752 53.5981 51.3938 52.6017" fill="#303030"/>
<path d="M73.5925 48.7032C70.9364 49.4149 67.6999 49.9911 64.5837 50.4971L62.6751 50.882C59.4213 51.4882 45.7779 55.1566 43.3281 55.9774C42.2847 56.333 38.9801 57.269 35.1121 58.3687C29.5386 59.9507 22.6139 61.92 20.6341 62.653C17.85 63.69 11.5337 65.5216 10.4746 65.2993C9.69817 65.1404 9.23811 64.2262 8.61402 63.0775C8.36518 62.5453 8.08322 62.0293 7.7698 61.5324C6.75956 59.497 5.98926 57.3511 5.47439 55.1379C5.33205 54.6067 5.19604 54.0991 5.06318 53.6032C4.22772 50.8158 3.50296 48.4415 3.0838 47.491C2.86279 46.8463 2.75802 46.1676 2.77437 45.4863C2.74816 44.4453 2.59437 43.4114 2.31644 42.4079C1.73318 40.5144 1.2909 38.0138 2.45699 36.841C2.63719 36.6118 2.86334 36.4229 3.12091 36.2863C3.37849 36.1497 3.66179 36.0686 3.95261 36.048C4.23079 36.0286 4.50619 35.9803 4.77433 35.9038C5.27014 35.7709 5.81318 35.6254 6.47595 35.549C7.90393 35.307 9.31607 34.9794 10.7047 34.5678C11.4838 34.359 12.9255 33.8841 14.6301 33.3515L15.0432 33.2408C19.7823 31.7559 26.2849 29.7225 27.8276 29.4356C29.1633 29.179 35.3531 27.5837 45.2339 24.9361C47.9019 24.2213 56.944 21.4188 59.7007 20.5157C63.1833 19.359 66.7309 18.4084 70.3252 17.6689C72.3899 17.394 73.8508 19.8241 75.1318 21.9607C75.3411 22.3011 75.5423 22.6268 75.7353 22.9378C76.7346 25.0699 77.4645 27.3182 77.9082 29.6308C78.2008 31.0567 78.5779 32.464 79.0375 33.8452C80.0472 36.2443 81.0722 43.422 79.0136 46.1752C78.3094 47.1357 76.5478 47.9746 73.6201 48.7591L73.5925 48.7032ZM51.4995 53.0414C55.95 51.8489 60.7704 50.6206 62.5287 50.2886L64.5122 49.9469C67.6047 49.4472 70.8294 48.8742 73.462 48.1688C76.0945 47.4634 77.9128 46.6473 78.5243 45.8128C80.3824 43.3032 79.3804 36.2585 78.478 34.071C77.9811 32.672 77.5729 31.2432 77.2558 29.7929C76.8238 27.5413 76.1179 25.3509 75.1539 23.2707C74.9591 22.9686 74.7548 22.6311 74.5505 22.2936C73.3609 20.3096 72.0128 18.0644 70.3504 18.2821C66.7931 19.0188 63.2812 19.9598 59.8321 21.1005C57.0754 22.0036 48.0096 24.8123 45.3299 25.5304C35.4373 28.1811 29.2356 29.7796 27.8764 30.0426C26.5171 30.3056 19.8901 32.347 15.1628 33.8287L14.8323 33.9173L10.9069 35.1336C9.49476 35.5517 8.05905 35.8857 6.60734 36.1338C5.98167 36.3015 5.40153 36.3557 4.95294 36.4759C4.65221 36.5552 4.34597 36.6119 4.03678 36.6455C3.81954 36.6564 3.60753 36.716 3.41636 36.8198C3.2252 36.9236 3.05975 37.0689 2.93219 37.2451C2.20644 37.9836 2.21018 39.7919 2.99481 42.2008C3.29514 43.2455 3.45682 44.3253 3.47572 45.4122C3.46051 46.0193 3.54991 46.6245 3.74002 47.2013C4.16868 48.1872 4.89976 50.5851 5.74155 53.3962C5.87124 53.8802 6.01042 54.3996 6.15276 54.9308C6.65817 57.0818 7.40021 59.1701 8.36531 61.1577C8.69093 61.6679 8.98497 62.1976 9.24578 62.7438C9.73979 63.7375 10.1541 64.5754 10.6392 64.6858C11.4156 64.8447 17.3999 63.1906 20.461 62.0541C22.4644 61.3148 29.4009 59.3423 34.9744 57.7604C38.807 56.6701 42.1115 55.7341 43.1904 55.3691C44.2693 55.0041 47.8131 54.0165 51.5789 53.0075L51.4995 53.0414ZM73.5743 47.9742C71.048 48.6511 67.8501 49.2297 64.5655 49.7682L64.4475 49.7998L62.5694 50.0626C60.7253 50.4049 55.6483 51.7147 51.5283 52.8186C47.4084 53.9226 44.1856 54.7861 43.128 55.1833C42.0704 55.5806 38.8036 56.4686 34.9828 57.5557C29.3975 59.1408 22.461 61.1133 20.4458 61.8557C17.2995 63.0503 14.0405 63.9236 10.7184 64.4621C10.3468 64.3972 10.0202 63.8395 9.41885 62.6341C9.15508 62.0718 8.85681 61.5264 8.52572 61.0009C7.56941 59.0273 6.83173 56.9551 6.32582 54.8212L6.2847 54.6677C6.15818 54.1955 6.03165 53.7233 5.91462 53.2865C5.07283 50.4755 4.33858 48.0658 3.90992 47.0799C3.72619 46.5189 3.63716 45.9313 3.64647 45.3411C3.63396 44.2371 3.4719 43.1399 3.16471 42.0793C2.44944 39.7405 2.42842 37.9621 3.14005 37.2653C3.60948 36.7979 3.73301 36.7395 4.17697 36.6964C4.49404 36.6604 4.80811 36.6017 5.11674 36.5206C5.57714 36.3972 6.10836 36.2548 6.73572 36.188C8.1991 35.9358 9.64654 35.5987 11.0707 35.1783L15.2086 33.905L15.2204 33.9019C19.6793 32.5047 26.4149 30.3962 27.9221 30.1189C29.4294 29.8415 35.4948 28.2542 45.3874 25.6035C48.0554 24.8887 57.0976 22.0862 59.9015 21.1704C63.3387 20.033 66.8389 19.0952 70.3843 18.3616C71.9491 18.1574 73.2728 20.3585 74.4592 22.3307C74.6627 22.6811 74.8638 23.0068 75.0626 23.3078C76.0081 25.3734 76.7044 27.5441 77.1369 29.7742C77.457 31.2363 77.8684 32.677 78.3686 34.0876C79.2647 36.2515 80.2681 43.2073 78.4391 45.6838C77.7781 46.5695 75.9644 47.3085 73.5207 47.9633L73.5743 47.9742ZM51.3293 52.2646C55.461 51.1575 60.5372 49.7974 62.4176 49.496L64.2948 49.1828L64.4129 49.1511C68.0461 48.5445 76.5342 47.1685 77.9467 45.3097C79.5524 43.1333 78.6681 36.3861 77.7973 34.3166C77.2926 32.886 76.876 31.4257 76.5498 29.9441C76.1289 27.7665 75.4544 25.6457 74.5402 23.6249L73.9368 22.6479C72.909 20.9368 71.6461 18.8206 70.4276 18.9953C66.919 19.7253 63.4545 20.6536 60.051 21.7757C57.2825 22.682 48.1931 25.497 45.5134 26.2151C35.6089 28.8689 29.3837 30.4738 28.0008 30.7431C26.6179 31.0124 19.7816 33.1225 15.3699 34.5071L15.2518 34.5387L11.1053 35.8269C9.66954 36.2511 8.21027 36.5914 6.73493 36.8461C6.12107 37.0106 5.52913 37.068 5.13956 37.1724C4.79998 37.2658 4.45286 37.3291 4.10219 37.3618C3.81887 37.4377 3.80706 37.4409 3.43586 37.7554C3.06465 38.07 2.88368 39.4723 3.63691 41.9528C3.95609 43.0609 4.12689 44.2064 4.14483 45.3594C4.13922 45.8755 4.20879 46.3897 4.35134 46.8857C4.80129 47.9038 5.54819 50.3608 6.38681 53.16C6.50701 53.6086 6.63354 54.0808 6.76006 54.553L6.80119 54.7065C7.30222 56.7768 8.01152 58.7911 8.91822 60.7185C9.26613 61.2639 9.57868 61.831 9.85394 62.4163C10.0884 62.9583 10.3909 63.4682 10.754 63.9339C13.9629 63.33 17.1141 62.4518 20.1727 61.3089C22.2116 60.5602 28.8648 58.6636 34.7333 57.0025C38.5818 55.9713 41.8587 54.9794 42.8668 54.6334C43.8748 54.2874 47.2652 53.3409 51.3025 52.2591" fill="#303030"/>
<path d="M43.3582 56.374C42.7706 56.5277 42.1697 56.6252 41.5636 56.665L40.974 56.6838L41.1962 56.1435C41.5721 54.8856 41.6831 53.5634 41.5222 52.2604C40.9236 48.4993 40.1237 44.773 39.1258 41.0976L39.0372 40.7671C38.0096 36.6014 35.0147 27.9271 34.9744 27.824L34.8827 27.4816L38.2914 26.0369L38.3957 26.4265C40.4152 32.0584 42.1258 37.7964 43.5201 43.6147L43.7984 44.6536C45.2832 51.8473 45.7594 55.1359 44.7329 55.7905C44.3134 56.0479 43.8566 56.2386 43.3787 56.3558L43.3582 56.374ZM42.0744 55.8323C42.8587 55.7663 43.6203 55.5363 44.3101 55.1573C45.081 54.6344 43.6529 47.9823 43.0444 44.7671L42.766 43.7282C41.4267 38.0729 39.7721 32.4968 37.81 27.0263L35.7523 27.8939C36.3196 29.5386 38.7932 36.8343 39.7187 40.5718L39.801 40.8788C40.8076 44.5897 41.617 48.3513 42.2258 52.1478C42.3509 53.3927 42.2597 54.65 41.9563 55.8639" fill="#303030"/>
<path d="M43.4377 56.6695C42.8265 56.8317 42.2005 56.9316 41.5691 56.9678L40.4938 57.0155L40.9012 56.0333C41.2433 54.8096 41.3308 53.5288 41.1581 52.2699C40.5526 48.5227 39.7519 44.8096 38.7594 41.1458L38.6835 40.8624C37.6653 36.7322 34.661 28.0224 34.627 27.9429L34.4625 27.3291L38.4865 25.6309L38.6731 26.3274C40.6949 31.9715 42.4087 37.7212 43.807 43.5511L44.0853 44.5899C45.696 52.3952 46.0592 55.3092 44.8981 56.0758C44.4536 56.3568 43.9665 56.5642 43.4558 56.69L43.4377 56.6695ZM41.4786 56.3468L41.5849 56.3183C42.1753 56.2849 42.7607 56.1916 43.3323 56.0399C43.7785 55.9317 44.2048 55.7535 44.5952 55.5117C45.5391 54.8792 44.6691 50.2157 43.5202 44.6528L43.2418 43.614C41.8458 37.8132 40.1434 32.0904 38.1419 26.4697L38.1229 26.3989L35.2352 27.6155L35.2542 27.6863C35.2763 27.769 38.2861 36.4519 39.3233 40.6531L39.4055 40.96C40.4074 44.6511 41.2116 48.3931 41.8145 52.17C41.9927 53.5445 41.8706 54.9413 41.4565 56.2641L41.4786 56.3468ZM43.2966 55.8596C42.902 55.9667 42.5 56.0448 42.094 56.0933L41.6532 56.1482L41.7526 55.7166C42.0264 54.5383 42.0942 53.3216 41.953 52.1202C41.3475 48.3355 40.5412 44.5857 39.5377 40.8866L39.4744 40.6505C38.5393 36.8775 36.0191 29.4552 35.5175 28.008L35.4416 27.7247L38.0673 26.6163L38.1527 26.935C40.1225 32.4116 41.7871 37.9933 43.1387 43.6542L43.4202 44.7049C44.9446 52.141 45.2526 54.9433 44.5549 55.4086C44.1822 55.6396 43.7746 55.8086 43.3478 55.9092L43.2966 55.8596ZM42.5459 55.4661C43.1345 55.3873 43.7015 55.1923 44.2142 54.8926C44.7574 54.2283 43.2925 47.1557 42.7851 44.8371L42.5036 43.7865C41.1877 38.2306 39.5674 32.7513 37.6502 27.3733L36.152 28.0151C36.8219 29.9486 39.1463 36.8288 40.037 40.4365L40.1193 40.7434C41.1322 44.4699 41.942 48.2485 42.545 52.0628C42.6713 53.1854 42.6344 54.3203 42.4356 55.4324" fill="#303030"/>
<path d="M73.7439 49.2696C71.1232 49.9718 67.9339 50.5354 64.7438 51.0486L62.7957 51.3807C59.5569 51.9955 45.9607 55.6513 43.5228 56.469C42.4485 56.7568 39.1511 57.7669 35.3067 58.8603C29.7451 60.4391 22.8204 62.4084 20.8759 63.1319C18.7222 63.9241 11.7859 66.0863 10.4173 65.7951C9.37633 65.5932 8.81295 64.5295 8.22258 63.2706C7.98657 62.7608 7.71884 62.2663 7.42096 61.79C6.38176 59.7133 5.58685 57.5231 5.05217 55.2633L4.6378 53.7168C3.84893 51.0561 3.09888 48.5874 2.68603 47.6605C2.43952 46.9516 2.31666 46.2056 2.32283 45.455L2.29622 44.9307L1.64202 34.4146L4.8194 44.9506C4.94908 45.4346 5.09143 45.9658 5.23377 46.497C5.7226 48.5107 6.40897 50.4713 7.28291 52.3502C7.64635 52.9151 7.96933 53.505 8.24941 54.1156C8.44604 54.5279 8.66356 54.9299 8.90113 55.3201C11.9412 54.6722 14.9331 53.8156 17.8554 52.7563C19.9061 52.0044 26.5711 50.1047 32.4719 48.4223C36.2967 47.3975 39.5265 46.4182 40.5731 46.0745C43.0464 45.2473 56.8788 41.5282 60.168 40.9126L62.175 40.5646C65.4478 40.0293 74.1193 38.6294 75.3596 36.9306C76.177 35.8259 76.389 32.7451 75.8796 29.4275L78.2817 28.9483L78.4209 29.4677C78.7078 30.874 79.0797 32.2617 79.5343 33.6231C80.5694 36.1166 81.6017 43.5581 79.4395 46.4909C78.5726 47.6468 76.4386 48.5602 73.6881 49.2972L73.7439 49.2696ZM51.152 51.793C55.6379 50.591 60.4897 49.291 62.2875 49.0117L64.2946 48.6637C67.5673 48.1284 76.2388 46.7285 77.4822 45.0415C78.4938 43.6697 78.4193 39.9445 77.9042 37.1724C77.7451 37.6202 77.5215 38.0424 77.2405 38.4257C75.5475 40.7013 69.0218 41.8932 62.4889 43.011L60.5409 43.3432C57.2989 43.9462 43.7058 47.6137 41.2647 48.4197C40.2095 48.7783 36.8931 49.7176 33.0487 50.8109C27.4902 52.4015 20.5655 54.3709 18.6179 55.0825C16.6703 55.7942 9.84345 57.9397 8.26954 57.7794C8.5324 58.7106 8.89647 59.6101 9.35523 60.4619C9.71744 61.0276 10.0404 61.6174 10.3217 62.2274C10.5184 62.6397 10.7359 63.0417 10.9734 63.4319C14.0151 62.7901 17.0074 61.9333 19.9277 60.8681C21.9784 60.1161 28.6434 58.2164 34.5474 56.5459C38.3722 55.521 41.5988 54.5299 42.6454 54.1862C43.692 53.8425 47.3389 52.8147 51.1047 51.8057" fill="#303030"/>
<path d="M39.2824 13.0683L37.5442 14.4198L36.266 15.9769L36.0811 18.0256L35.9168 19.5373L36.8958 22.5773L38.1959 27.4291L39.1718 28.5215L42.5852 28.4166L46.9413 27.2494L49.0598 25.9479L49.9238 24.2614L50.0049 21.6838L48.0692 18.5206L46.2857 15.5949L44.5814 13.6729L43.5761 12.4239L41.2427 12.4039L38.5834 13.1038L39.2824 13.0683Z" fill="#161615"/>
<path d="M38.4672 28.9128C37.9735 28.8174 37.5761 28.2786 37.2229 27.1965C36.383 24.676 34.8503 20.0889 35.6203 16.8713C35.8328 16.0307 36.2218 15.245 36.7614 14.5664C36.9172 14.3537 37.0871 14.1518 37.27 13.962C38.477 12.7529 40.5598 12.4984 42.4433 12.2088C44.3269 11.9192 45.586 13.4545 46.8987 15.7092C47.1519 16.1348 47.3965 16.5753 47.6583 16.986C50.3402 21.3284 51.0616 24.2097 49.8937 25.8005C49.2358 26.698 47.3544 27.4678 45.2767 28.0245C43.0686 28.6809 40.7699 28.9808 38.4672 28.9128ZM42.5298 12.7677C40.6227 13.0636 37.3578 14.2421 36.9135 16.0313C36.4749 19.7078 36.8267 23.4355 37.9453 26.965C38.2015 27.9212 38.5285 28.1499 38.6088 28.1664C40.1435 28.4637 47.983 27.1223 49.2334 25.3195C49.8912 24.4221 50.0335 22.3089 46.9589 17.3505L46.2347 16.0642C44.9764 13.8709 44.0166 12.5085 42.5235 12.7441" fill="#FBFBF2"/>
<path d="M45.3932 28.4609C43.1209 29.1366 40.7546 29.4417 38.3853 29.3644C37.505 29.1954 37.0731 28.1977 36.78 27.3399C35.8706 24.5596 34.3867 20.0607 35.2118 16.765C35.4359 15.8578 35.8512 15.0089 36.4298 14.2751C36.6048 14.0473 36.791 13.8285 36.988 13.6194C38.2241 12.3772 40.2792 12.0669 42.0801 11.7995L42.3989 11.7141C44.7319 11.3547 46.0536 13.2653 47.3237 15.4555C47.6014 15.9252 47.8364 16.3303 48.0802 16.7205C50.9025 21.3037 51.6074 24.2653 50.2886 26.0484C49.4743 27.1649 47.1962 27.9651 45.4254 28.4396L45.3932 28.4609ZM38.8194 27.6792C40.5603 27.8959 47.8597 26.5221 48.9127 24.9747C49.3883 24.3411 49.7222 22.5183 46.6381 17.5245C46.3731 17.102 46.1135 16.6528 45.8571 16.2154C44.587 14.0252 43.7277 12.9902 42.6092 13.1128C40.6398 13.4127 37.719 14.6003 37.3696 16.035C36.955 19.6285 37.301 23.269 38.3853 26.72C38.4754 27.0448 38.6177 27.3529 38.8068 27.6319L38.8194 27.6792ZM36.5048 15.7353C36.3166 16.0966 36.1727 16.4793 36.0763 16.875C35.7291 19.3181 35.963 21.8087 36.7589 24.1445C36.1733 21.4077 36.0647 18.5903 36.438 15.8165L36.4221 15.7575L36.5048 15.7353ZM38.8779 13.3534C38.373 13.5389 37.9116 13.8261 37.5224 14.1974L37.4234 14.2999C37.8709 13.9304 38.3588 13.6129 38.8779 13.3534Z" fill="#303030"/>
<path d="M18.8463 31.6148C18.7531 32.0629 18.5361 32.4758 18.2199 32.8066C17.9037 33.1374 17.5009 33.3727 17.0575 33.4859L16.9985 33.5017C16.3492 33.6757 15.3067 33.5628 14.1155 32.1865C12.6541 30.6043 13.0586 27.8642 13.295 26.7633C13.5315 25.6625 14.1498 24.0038 14.7597 23.7771C15.0646 23.5981 15.4239 23.5354 15.7715 23.6003C16.119 23.6653 16.4314 23.8536 16.6511 24.1307L16.5282 24.7583C16.3402 24.5649 16.0974 24.4338 15.8326 24.3826C15.5678 24.3314 15.2936 24.3626 15.0471 24.4719C14.4042 25.398 14.0127 26.4751 13.9109 27.5979C13.7626 28.6498 13.6436 30.5669 14.6762 31.682C15.4614 32.5345 16.268 32.9003 16.8732 32.7508C17.2265 32.6287 17.542 32.4165 17.7883 32.1353C18.0347 31.854 18.2035 31.5135 18.2781 31.1471L18.8463 31.6148Z" fill="#FBFBF2"/>
<path d="M17.1874 33.9693C16.3492 34.1938 15.1375 34.063 13.7335 32.554C12.127 30.8082 12.5581 27.8838 12.8141 26.7144C12.9128 26.2325 13.498 23.8362 14.5461 23.4035C14.9298 23.1921 15.3746 23.1194 15.8057 23.1974C16.2368 23.2755 16.6278 23.4996 16.9131 23.8321L17.1117 24.0067L16.8042 25.6453L16.2021 25.0981C16.0864 24.9717 15.936 24.8824 15.7696 24.8414C15.6033 24.8004 15.4285 24.8096 15.2674 24.8678C14.771 25.7204 14.4559 26.6663 14.3417 27.6463C14.1923 28.2721 14.1715 28.9218 14.2805 29.5559C14.3895 30.19 14.6261 30.7954 14.976 31.3354C15.6373 32.0565 16.2597 32.3959 16.735 32.2812C17.2104 32.1664 17.5814 31.6621 17.7947 30.9471L17.982 30.2769L19.3886 31.4183L19.3047 31.7191C19.2058 32.2582 18.9533 32.7572 18.5778 33.1563C18.2022 33.5555 17.7194 33.8377 17.1874 33.9693Z" fill="#303030"/>
<path d="M22.4674 32.0488C21.9716 32.1816 21.4286 32.3271 20.8311 32.4113C20.3638 32.5103 19.8804 32.5062 19.4148 32.3994C18.9491 32.2925 18.5123 32.0854 18.1348 31.7926C17.4649 31.1649 16.9301 30.4071 16.5632 29.5656C16.1963 28.724 16.005 27.8165 16.001 26.8984C15.8111 24.0646 16.5649 18.4726 18.648 17.8891C21.009 17.2565 21.9945 19.0927 22.9964 20.8487C23.2804 21.3419 23.5644 21.8352 23.8925 22.304C25.3751 24.4373 27.0315 28.4471 25.8155 30.0003C24.9337 31.078 23.7038 31.8146 22.3376 32.0836L22.4674 32.0488ZM18.8205 18.6273C17.4512 18.9942 16.4553 23.5883 16.6765 26.8693C16.6815 27.6787 16.8472 28.479 17.1641 29.2238C17.4809 29.9687 17.9426 30.6431 18.5223 31.208C18.8032 31.4352 19.1309 31.5973 19.4819 31.6826C19.833 31.7679 20.1986 31.7744 20.5524 31.7015C22.875 31.2563 24.2341 30.8036 25.2237 29.5389C26.042 28.4845 24.861 25.0685 23.2624 22.7386C22.928 22.2461 22.6259 21.7324 22.3387 21.2274C21.2603 19.3274 20.4968 18.1782 18.8441 18.621L18.8205 18.6273Z" fill="#FBFBF2"/>
<path d="M22.594 32.5209C22.0864 32.657 21.5434 32.8025 20.9224 32.893C20.3975 33 19.8555 32.9908 19.3345 32.8659C18.8136 32.741 18.3263 32.5034 17.9071 32.1699C17.184 31.5066 16.6058 30.701 16.2086 29.8037C15.8114 28.9064 15.6039 27.9368 15.5989 26.9556C15.4113 24.0831 16.1119 18.1511 18.635 17.4624C21.1581 16.7736 22.5612 18.9409 23.541 20.6142C23.804 21.1041 24.0921 21.5801 24.404 22.0404C25.6745 23.9016 27.8188 28.3627 26.3096 30.2854C25.3754 31.4491 24.0629 32.2485 22.6004 32.5446L22.594 32.5209ZM18.9663 18.6515L19.0865 19.1001C18.1421 19.3531 17.0488 23.4419 17.2812 26.8591C17.2759 27.6041 17.4197 28.3428 17.7041 29.0314C17.9886 29.7201 18.408 30.3448 18.9376 30.8689C19.1689 31.0573 19.4397 31.191 19.7299 31.2601C20.0201 31.3291 20.3221 31.3317 20.6134 31.2676C22.818 30.8541 24.0976 30.4353 25.0031 29.2817C25.5572 28.5638 24.7625 25.5504 23.033 23.0151C22.6836 22.5141 22.3783 21.9885 22.0912 21.4835C20.9701 19.519 20.3851 18.7522 19.1101 19.0938L18.9663 18.6515Z" fill="#303030"/>
<path d="M28.6415 15.2366L25.4006 16.7882L24.5353 21.9166L24.7304 27.6972L25.5401 30.7193L27.5058 31.964L31.7255 31.3267L37.0207 29.4145L38.1825 27.9897L37.2083 24.3538L36.0932 20.8062L34.7362 18.3862L32.4095 15.4163L30.641 15.1437L28.6415 15.2366Z" fill="#161615"/>
<path d="M31.7537 31.6231C29.676 32.1798 27.6618 32.4538 26.6465 32.0173C24.8427 31.2354 24.0205 28.3558 24.175 23.266L24.1913 21.7686C24.2008 19.1597 24.2149 16.4735 26.0704 15.7486C27.6484 14.9545 29.4181 14.6207 31.177 14.7852C31.5518 14.8585 31.9211 14.9583 32.2818 15.0838C33.1228 15.503 33.8722 16.0849 34.4866 16.7958C36.7591 19.1856 37.7611 24.2944 38.3177 26.8909C38.6087 27.977 38.478 28.6699 38.0982 28.9994C36.1356 30.2045 33.9941 31.0901 31.7537 31.6231ZM26.346 16.4466C24.9737 16.9914 24.9718 19.3453 24.9534 21.7795C24.9501 22.2865 24.9468 22.7935 24.9285 23.2919C24.7567 29.1201 25.9366 30.879 26.9519 31.3155C28.9588 32.1948 36.4187 29.4368 37.5764 28.4687C37.6472 28.4497 37.7475 28.0685 37.5503 27.0965C36.7023 23.0345 34.3341 17.5958 32.8416 16.4648C31.3492 15.3337 28.1079 15.7973 26.3201 16.4915" fill="#FBFBF2"/>
<path d="M31.8737 32.0714C30.103 32.5458 27.7299 32.9919 26.4665 32.4321C24.4296 31.5355 23.5593 28.6182 23.7151 23.2497L23.7346 21.7642C23.7415 19.004 23.7617 16.1518 25.9028 15.3124C27.5585 14.4963 29.409 14.1582 31.2463 14.3361C31.6558 14.4051 32.0578 14.5135 32.4465 14.6598C33.3574 15.0908 34.1662 15.7109 34.8191 16.4787C37.1278 18.9093 38.1667 23.9197 38.7218 26.6051L38.7724 26.794C39.0033 27.6558 39.0841 28.7602 38.4031 29.3349C36.3945 30.596 34.1928 31.5193 31.8855 32.0682L31.8737 32.0714ZM26.5455 16.8609C25.4706 17.2881 25.4615 19.568 25.4453 21.7739C25.4419 22.2809 25.4386 22.7879 25.4203 23.2863C25.2494 29.1649 26.4564 30.6002 27.1669 30.8906C28.8454 31.6302 35.8483 29.1971 37.2562 28.1239C37.2767 27.7878 37.246 27.4504 37.1652 27.1235C36.3244 23.1354 34.009 17.8471 32.6214 16.7765C31.2338 15.7059 28.1948 16.2166 26.5455 16.8609ZM33.8913 16.8411C35.2926 18.9582 36.3836 21.2649 37.1312 23.6911C36.6364 21.3047 35.603 19.0629 34.1097 17.1369L33.8441 16.8538L33.8913 16.8411ZM28.2828 15.4591C29.6181 15.1798 31.0024 15.2443 32.3059 15.6464L32.0578 15.5231C31.7341 15.4142 31.4027 15.3296 31.0664 15.27C30.1362 15.1206 29.1842 15.1853 28.2828 15.4591Z" fill="#303030"/>
<path d="M63.2891 19.6934C56.898 13.0298 47.5978 10.7139 35.5703 12.8105C33.7746 13.0798 31.9652 13.2478 30.1507 13.3138C25.0504 13.5923 19.2542 13.9181 15.7804 18.1891C12.3067 22.4602 12.2389 30.9429 12.4954 34.7333L13.2509 34.5308C13.0456 30.79 13.0148 22.7892 16.3667 18.6773C19.7187 14.5654 25.004 14.3638 30.2051 14.0836C32.0481 14.0113 33.8859 13.8399 35.7105 13.5701C47.3036 11.5519 56.2958 13.71 62.4935 19.9825L63.2891 19.6934Z" fill="#303030"/>
<path d="M12.0637 35.3423L12.0244 34.7708C11.7342 30.3822 11.7946 22.3443 15.4107 17.8959C19.0267 13.4475 24.9182 13.1468 30.116 12.8548C31.9147 12.7928 33.7084 12.629 35.4885 12.3642C47.649 10.2445 57.0658 12.6179 63.6097 19.3796L64.0897 19.8963L62.3688 20.5092L62.1607 20.2993C56.0686 14.1377 47.2016 12.0219 35.7652 14.0108C33.9244 14.2868 32.0695 14.4586 30.2094 14.5252C25.1122 14.8155 19.849 15.0997 16.7093 18.965C13.4038 23.0138 13.512 31.209 13.6978 34.4995L13.7187 34.8609L12.0637 35.3423Z" fill="#303030"/>
</g>
</svg>
