<svg width="122" height="32" viewBox="0 0 122 32" fill="none" xmlns="http://www.w3.org/2000/svg">
<path d="M0.469669 15.4697C0.176777 15.7626 0.176777 16.2374 0.469669 16.5303L5.24264 21.3033C5.53553 21.5962 6.01041 21.5962 6.3033 21.3033C6.59619 21.0104 6.59619 20.5355 6.3033 20.2426L2.06066 16L6.3033 11.7574C6.5962 11.4645 6.5962 10.9896 6.3033 10.6967C6.01041 10.4038 5.53553 10.4038 5.24264 10.6967L0.469669 15.4697ZM46 15.25L1 15.25L1 16.75L46 16.75L46 15.25Z" fill="#696969"/>
<g filter="url(#filter0_d)">
<path d="M111.53 15.4697C111.823 15.7626 111.823 16.2374 111.53 16.5303L106.757 21.3033C106.464 21.5962 105.99 21.5962 105.697 21.3033C105.404 21.0104 105.404 20.5355 105.697 20.2426L109.939 16L105.697 11.7574C105.404 11.4645 105.404 10.9896 105.697 10.6967C105.99 10.4038 106.464 10.4038 106.757 10.6967L111.53 15.4697ZM66 15.25L111 15.25L111 16.75L66 16.75L66 15.25Z" fill="#C93A48"/>
</g>
<defs>
<filter id="filter0_d" x="56" y="0.477051" width="65.75" height="31.0459" filterUnits="userSpaceOnUse" color-interpolation-filters="sRGB">
<feFlood flood-opacity="0" result="BackgroundImageFix"/>
<feColorMatrix in="SourceAlpha" type="matrix" values="0 0 0 0 0 0 0 0 0 0 0 0 0 0 0 0 0 0 127 0"/>
<feOffset/>
<feGaussianBlur stdDeviation="5"/>
<feColorMatrix type="matrix" values="0 0 0 0 0.788235 0 0 0 0 0.227451 0 0 0 0 0.282353 0 0 0 1 0"/>
<feBlend mode="normal" in2="BackgroundImageFix" result="effect1_dropShadow"/>
<feBlend mode="normal" in="SourceGraphic" in2="effect1_dropShadow" result="shape"/>
</filter>
</defs>
</svg>
