<svg width="18" height="18" viewBox="0 0 18 18" fill="none" xmlns="http://www.w3.org/2000/svg">
<path d="M8.8982 0.742721C5.48139 0.742721 2.2368 0.439016 0.997487 3.61711C0.485578 4.92972 0.559918 6.63442 0.559918 9.07534C0.559918 11.2173 0.491224 13.2304 0.997487 14.5326C2.23397 17.7126 5.50492 17.408 8.89631 17.408C12.1682 17.408 15.5417 17.7483 16.7961 14.5326C17.3089 13.2069 17.2337 11.5276 17.2337 9.07534C17.2337 5.82015 17.4134 3.71866 15.8334 2.14089C14.2337 0.542445 12.0703 0.742721 8.89443 0.742721H8.8982ZM8.15104 2.24432C15.2782 2.23304 16.1854 1.44134 15.6848 12.4396C15.5069 16.3295 12.5427 15.9026 8.89914 15.9026C2.25562 15.9026 2.06459 15.7127 2.06459 9.07158C2.06459 2.35339 2.59156 2.24808 8.15104 2.24244V2.24432ZM13.3492 3.62745C12.7968 3.62745 12.3489 4.07502 12.3489 4.62695C12.3489 5.17889 12.7968 5.62645 13.3492 5.62645C13.9015 5.62645 14.3495 5.17889 14.3495 4.62695C14.3495 4.07502 13.9015 3.62745 13.3492 3.62745ZM8.8982 4.7962C6.53344 4.7962 4.61661 6.71246 4.61661 9.07534C4.61661 11.4382 6.53344 13.3535 8.8982 13.3535C11.263 13.3535 13.1788 11.4382 13.1788 9.07534C13.1788 6.71246 11.263 4.7962 8.8982 4.7962ZM8.8982 6.2978C12.5728 6.2978 12.5775 11.8529 8.8982 11.8529C5.2245 11.8529 5.21885 6.2978 8.8982 6.2978Z" fill="#BD2D43"/>
</svg>
