<svg width="29" height="30" viewBox="0 0 29 30" fill="none" xmlns="http://www.w3.org/2000/svg">
<path d="M23.7221 17.611C23.1071 16.9706 22.3652 16.6282 21.5789 16.6282C20.799 16.6282 20.0507 16.9642 19.4103 17.6047L17.4066 19.602C17.2417 19.5133 17.0768 19.4308 16.9183 19.3484C16.69 19.2343 16.4745 19.1265 16.2906 19.0123C14.4137 17.8202 12.7079 16.2667 11.072 14.2566C10.2794 13.2548 9.74673 12.4114 9.35993 11.5554C9.87989 11.0798 10.3618 10.5852 10.831 10.1097C11.0086 9.93213 11.1861 9.74825 11.3637 9.5707C12.6953 8.23911 12.6953 6.51438 11.3637 5.18278L9.63259 3.45171C9.43602 3.25514 9.23311 3.05223 9.04289 2.84932C8.66243 2.45618 8.26295 2.05036 7.85079 1.66991C7.23572 1.06118 6.50018 0.737793 5.72658 0.737793C4.95299 0.737793 4.20476 1.06118 3.57067 1.66991C3.56433 1.67625 3.56433 1.67625 3.55799 1.68259L1.40207 3.85753C0.590434 4.66917 0.127547 5.65835 0.026092 6.80606C-0.12609 8.65761 0.419229 10.3823 0.83773 11.511C1.86496 14.282 3.39946 16.8501 5.68854 19.602C8.46586 22.9183 11.8075 25.5371 15.6248 27.3824C17.0832 28.0735 19.0298 28.8915 21.2048 29.031C21.3379 29.0373 21.4774 29.0437 21.6043 29.0437C23.069 29.0437 24.2992 28.5174 25.263 27.4711C25.2693 27.4585 25.282 27.4521 25.2883 27.4394C25.6181 27.0399 25.9985 26.6785 26.398 26.2917C26.6707 26.0317 26.9497 25.7591 27.2223 25.4737C27.8501 24.8206 28.1798 24.0597 28.1798 23.2798C28.1798 22.4935 27.8437 21.7389 27.2033 21.1048L23.7221 17.611ZM25.9922 24.288C25.9858 24.288 25.9858 24.2943 25.9922 24.288C25.7449 24.5543 25.4912 24.7953 25.2186 25.0616C24.8064 25.4547 24.3879 25.8669 23.9948 26.3298C23.3544 27.0146 22.5998 27.338 21.6106 27.338C21.5155 27.338 21.414 27.338 21.3189 27.3316C19.4357 27.2112 17.6856 26.4756 16.373 25.8479C12.784 24.1104 9.63259 21.6438 7.01379 18.5177C4.85154 15.9116 3.40581 13.5021 2.44833 10.915C1.85862 9.33609 1.64303 8.10595 1.73814 6.94556C1.80155 6.20367 2.08689 5.5886 2.61319 5.0623L4.77544 2.90005C5.08615 2.60837 5.41588 2.44984 5.73927 2.44984C6.13874 2.44984 6.46213 2.6908 6.66504 2.89371C6.67138 2.90005 6.67772 2.90639 6.68406 2.91273C7.07086 3.27416 7.43863 3.64828 7.82543 4.04776C8.022 4.25067 8.22491 4.45357 8.42782 4.66283L10.1589 6.3939C10.831 7.06604 10.831 7.68745 10.1589 8.35958C9.975 8.54347 9.79746 8.72736 9.61357 8.9049C9.08093 9.45022 8.57366 9.9575 8.022 10.4521C8.00932 10.4648 7.99663 10.4711 7.99029 10.4838C7.44497 11.0291 7.54643 11.5618 7.66057 11.9232C7.66691 11.9422 7.67325 11.9612 7.67959 11.9803C8.12979 13.0709 8.76389 14.0981 9.72771 15.3219L9.73405 15.3283C11.4841 17.4842 13.3294 19.1645 15.3648 20.4517C15.6248 20.6166 15.8911 20.7498 16.1447 20.8766C16.373 20.9907 16.5886 21.0985 16.7725 21.2126C16.7978 21.2253 16.8232 21.2443 16.8486 21.257C17.0642 21.3648 17.2671 21.4155 17.4763 21.4155C18.0026 21.4155 18.3323 21.0858 18.4401 20.978L20.6087 18.8094C20.8243 18.5938 21.1667 18.3339 21.5662 18.3339C21.9594 18.3339 22.2827 18.5812 22.4793 18.7967C22.4856 18.8031 22.4856 18.8031 22.492 18.8094L25.9858 22.3033C26.639 22.9501 26.639 23.6158 25.9922 24.288Z" fill="#CB3B48"/>
</svg>
