<svg width="17" height="16" viewBox="0 0 17 16" fill="none" xmlns="http://www.w3.org/2000/svg">
<path d="M0.554528 7.78195L4.3202 9.18741L5.77774 13.8749C5.871 14.1751 6.23811 14.286 6.48178 14.0868L8.58083 12.3756C8.80086 12.1964 9.11425 12.1874 9.34419 12.3543L13.1301 15.103C13.3908 15.2925 13.7601 15.1496 13.8255 14.8347L16.5989 1.49412C16.6702 1.15005 16.3321 0.86302 16.0045 0.989729L0.550116 6.95158C0.168733 7.09866 0.172056 7.63862 0.554528 7.78195ZM5.54284 8.43925L12.9024 3.90651C13.0346 3.82528 13.1707 4.00413 13.0571 4.10948L6.98339 9.75532C6.7699 9.95404 6.63219 10.22 6.59318 10.5087L6.38629 12.0419C6.35889 12.2466 6.07131 12.267 6.01482 12.0688L5.2191 9.27288C5.12796 8.95398 5.26077 8.61335 5.54284 8.43925Z" fill="#BD2D43"/>
</svg>
