<svg width="17" height="16" viewBox="0 0 17 16" fill="none" xmlns="http://www.w3.org/2000/svg">
<path fill-rule="evenodd" clip-rule="evenodd" d="M13.7747 2.35413C12.2927 0.863147 10.3218 0.0416764 8.22202 0.040802C3.8953 0.040802 0.37398 3.5792 0.37224 7.92819C0.37166 9.31842 0.733074 10.6755 1.42003 11.8717L0.306396 15.9592L4.46768 14.8623C5.61429 15.4908 6.90515 15.822 8.21883 15.8224H8.22212C12.5484 15.8224 16.0701 12.2837 16.0717 7.9345C16.0726 5.82676 15.2568 3.84502 13.7747 2.35413ZM8.22202 14.4902H8.21931C7.04863 14.4898 5.90048 14.1736 4.89862 13.5764L4.66048 13.4342L2.19111 14.0852L2.85022 11.6659L2.69504 11.4178C2.04192 10.3739 1.69704 9.16744 1.69762 7.92867C1.69897 4.31391 4.62586 1.37303 8.22463 1.37303C9.96731 1.37362 11.6055 2.05644 12.8373 3.29569C14.069 4.53494 14.747 6.18216 14.7464 7.93402C14.7449 11.5491 11.8182 14.4902 8.22202 14.4902ZM11.8008 9.57997C11.6047 9.48126 10.6403 9.0046 10.4605 8.93873C10.2809 8.87295 10.1499 8.84021 10.0193 9.03744C9.88851 9.23467 9.51269 9.67868 9.39821 9.81014C9.28373 9.94169 9.16945 9.95821 8.97327 9.85949C8.7771 9.76088 8.14515 9.55267 7.39593 8.88121C6.81291 8.3586 6.4193 7.71317 6.30482 7.51594C6.19054 7.31852 6.30386 7.22214 6.39087 7.11371C6.6032 6.84876 6.81581 6.57099 6.88117 6.43953C6.94663 6.30798 6.91385 6.19285 6.86474 6.09423C6.81581 5.99562 6.42355 5.02549 6.26015 4.63074C6.10082 4.24658 5.93925 4.29846 5.81878 4.29244C5.7045 4.2867 5.57368 4.28554 5.44286 4.28554C5.31214 4.28554 5.09963 4.3348 4.91979 4.53222C4.74005 4.72955 4.23341 5.2063 4.23341 6.17643C4.23341 7.14655 4.93623 8.08374 5.03427 8.21529C5.13231 8.34684 6.41737 10.3376 8.38484 11.1912C8.8528 11.3945 9.21808 11.5156 9.50302 11.6065C9.97291 11.7565 10.4004 11.7353 10.7384 11.6846C11.1153 11.628 11.8987 11.2078 12.0623 10.7474C12.2257 10.287 12.2257 9.89243 12.1766 9.81014C12.1277 9.72794 11.9969 9.67868 11.8008 9.57997Z" fill="#BD2D43"/>
</svg>
